ISO-10303-21;
HEADER;
/* Generated by software containing ST-Developer
 * from STEP Tools, Inc. (www.steptools.com) 
 */

FILE_DESCRIPTION(
/* description */ (''),
/* implementation_level */ '2;1');

FILE_NAME(
/* name */ 'motor-mount.step',
/* time_stamp */ '2026-08-22T19:17:22+02:00',
/* author */ (''),
/* organization */ (''),
/* preprocessor_version */ 'ST-DEVELOPER v20.1',
/* originating_system */ 'Autodesk Translation Framework v15.8.0.0',
/* authorisation */ '');

FILE_SCHEMA (('AUTOMOTIVE_DESIGN { 1 0 10303 214 3 1 1 }'));
ENDSEC;

DATA;
#10=MECHANICAL_DESIGN_GEOMETRIC_PRESENTATION_REPRESENTATION('',(#13),#1595);
#11=SHAPE_REPRESENTATION_RELATIONSHIP('SRR','None',#1602,#12);
#12=ADVANCED_BREP_SHAPE_REPRESENTATION('',(#14),#1594);
#13=STYLED_ITEM('',(#1611),#14);
#14=MANIFOLD_SOLID_BREP('Bry\X2\0142\X0\a39',#959);
#15=FACE_BOUND('',#126,.T.);
#16=FACE_BOUND('',#127,.T.);
#17=FACE_BOUND('',#128,.T.);
#18=FACE_BOUND('',#129,.T.);
#19=FACE_BOUND('',#130,.T.);
#20=FACE_BOUND('',#131,.T.);
#21=FACE_BOUND('',#132,.T.);
#22=FACE_BOUND('',#133,.T.);
#23=FACE_BOUND('',#134,.T.);
#24=FACE_BOUND('',#135,.T.);
#25=FACE_BOUND('',#136,.T.);
#26=FACE_BOUND('',#137,.T.);
#27=FACE_BOUND('',#138,.T.);
#28=FACE_BOUND('',#171,.T.);
#29=FACE_BOUND('',#172,.T.);
#30=FACE_BOUND('',#173,.T.);
#31=FACE_BOUND('',#174,.T.);
#32=FACE_BOUND('',#175,.T.);
#33=FACE_BOUND('',#176,.T.);
#34=FACE_BOUND('',#177,.T.);
#35=FACE_BOUND('',#178,.T.);
#36=FACE_BOUND('',#179,.T.);
#37=FACE_BOUND('',#180,.T.);
#38=FACE_BOUND('',#181,.T.);
#39=FACE_BOUND('',#182,.T.);
#40=FACE_BOUND('',#183,.T.);
#41=PLANE('',#1009);
#42=PLANE('',#1018);
#43=PLANE('',#1021);
#44=PLANE('',#1022);
#45=PLANE('',#1023);
#46=PLANE('',#1026);
#47=PLANE('',#1027);
#48=PLANE('',#1028);
#49=PLANE('',#1031);
#50=PLANE('',#1032);
#51=PLANE('',#1033);
#52=PLANE('',#1034);
#53=PLANE('',#1037);
#54=PLANE('',#1038);
#55=PLANE('',#1039);
#56=PLANE('',#1040);
#57=PLANE('',#1043);
#58=PLANE('',#1044);
#59=PLANE('',#1045);
#60=PLANE('',#1046);
#61=PLANE('',#1049);
#62=PLANE('',#1050);
#63=PLANE('',#1051);
#64=PLANE('',#1052);
#65=PLANE('',#1055);
#66=PLANE('',#1056);
#67=FACE_OUTER_BOUND('',#113,.T.);
#68=FACE_OUTER_BOUND('',#114,.T.);
#69=FACE_OUTER_BOUND('',#115,.T.);
#70=FACE_OUTER_BOUND('',#116,.T.);
#71=FACE_OUTER_BOUND('',#117,.T.);
#72=FACE_OUTER_BOUND('',#118,.T.);
#73=FACE_OUTER_BOUND('',#119,.T.);
#74=FACE_OUTER_BOUND('',#120,.T.);
#75=FACE_OUTER_BOUND('',#121,.T.);
#76=FACE_OUTER_BOUND('',#122,.T.);
#77=FACE_OUTER_BOUND('',#123,.T.);
#78=FACE_OUTER_BOUND('',#124,.T.);
#79=FACE_OUTER_BOUND('',#125,.T.);
#80=FACE_OUTER_BOUND('',#139,.T.);
#81=FACE_OUTER_BOUND('',#140,.T.);
#82=FACE_OUTER_BOUND('',#141,.T.);
#83=FACE_OUTER_BOUND('',#142,.T.);
#84=FACE_OUTER_BOUND('',#143,.T.);
#85=FACE_OUTER_BOUND('',#144,.T.);
#86=FACE_OUTER_BOUND('',#145,.T.);
#87=FACE_OUTER_BOUND('',#146,.T.);
#88=FACE_OUTER_BOUND('',#147,.T.);
#89=FACE_OUTER_BOUND('',#148,.T.);
#90=FACE_OUTER_BOUND('',#149,.T.);
#91=FACE_OUTER_BOUND('',#150,.T.);
#92=FACE_OUTER_BOUND('',#151,.T.);
#93=FACE_OUTER_BOUND('',#152,.T.);
#94=FACE_OUTER_BOUND('',#153,.T.);
#95=FACE_OUTER_BOUND('',#154,.T.);
#96=FACE_OUTER_BOUND('',#155,.T.);
#97=FACE_OUTER_BOUND('',#156,.T.);
#98=FACE_OUTER_BOUND('',#157,.T.);
#99=FACE_OUTER_BOUND('',#158,.T.);
#100=FACE_OUTER_BOUND('',#159,.T.);
#101=FACE_OUTER_BOUND('',#160,.T.);
#102=FACE_OUTER_BOUND('',#161,.T.);
#103=FACE_OUTER_BOUND('',#162,.T.);
#104=FACE_OUTER_BOUND('',#163,.T.);
#105=FACE_OUTER_BOUND('',#164,.T.);
#106=FACE_OUTER_BOUND('',#165,.T.);
#107=FACE_OUTER_BOUND('',#166,.T.);
#108=FACE_OUTER_BOUND('',#167,.T.);
#109=FACE_OUTER_BOUND('',#168,.T.);
#110=FACE_OUTER_BOUND('',#169,.T.);
#111=FACE_OUTER_BOUND('',#170,.T.);
#112=FACE_OUTER_BOUND('',#184,.T.);
#113=EDGE_LOOP('',(#629,#630,#631,#632));
#114=EDGE_LOOP('',(#633,#634,#635,#636));
#115=EDGE_LOOP('',(#637,#638,#639,#640));
#116=EDGE_LOOP('',(#641,#642,#643,#644));
#117=EDGE_LOOP('',(#645,#646,#647,#648));
#118=EDGE_LOOP('',(#649,#650,#651,#652));
#119=EDGE_LOOP('',(#653,#654,#655,#656));
#120=EDGE_LOOP('',(#657,#658,#659,#660));
#121=EDGE_LOOP('',(#661,#662,#663,#664));
#122=EDGE_LOOP('',(#665,#666,#667,#668));
#123=EDGE_LOOP('',(#669,#670,#671,#672));
#124=EDGE_LOOP('',(#673,#674,#675,#676));
#125=EDGE_LOOP('',(#677));
#126=EDGE_LOOP('',(#678,#679,#680,#681,#682,#683));
#127=EDGE_LOOP('',(#684,#685,#686,#687,#688,#689));
#128=EDGE_LOOP('',(#690,#691,#692,#693,#694,#695));
#129=EDGE_LOOP('',(#696,#697,#698,#699,#700,#701));
#130=EDGE_LOOP('',(#702,#703,#704,#705,#706,#707));
#131=EDGE_LOOP('',(#708));
#132=EDGE_LOOP('',(#709,#710,#711,#712,#713,#714));
#133=EDGE_LOOP('',(#715));
#134=EDGE_LOOP('',(#716));
#135=EDGE_LOOP('',(#717));
#136=EDGE_LOOP('',(#718));
#137=EDGE_LOOP('',(#719));
#138=EDGE_LOOP('',(#720));
#139=EDGE_LOOP('',(#721,#722,#723,#724));
#140=EDGE_LOOP('',(#725,#726,#727,#728));
#141=EDGE_LOOP('',(#729,#730,#731,#732));
#142=EDGE_LOOP('',(#733,#734,#735,#736));
#143=EDGE_LOOP('',(#737,#738,#739,#740));
#144=EDGE_LOOP('',(#741,#742,#743,#744));
#145=EDGE_LOOP('',(#745,#746,#747,#748));
#146=EDGE_LOOP('',(#749,#750,#751,#752));
#147=EDGE_LOOP('',(#753,#754,#755,#756));
#148=EDGE_LOOP('',(#757,#758,#759,#760));
#149=EDGE_LOOP('',(#761,#762,#763,#764));
#150=EDGE_LOOP('',(#765,#766,#767,#768));
#151=EDGE_LOOP('',(#769,#770,#771,#772));
#152=EDGE_LOOP('',(#773,#774,#775,#776));
#153=EDGE_LOOP('',(#777,#778,#779,#780));
#154=EDGE_LOOP('',(#781,#782,#783,#784));
#155=EDGE_LOOP('',(#785,#786,#787,#788));
#156=EDGE_LOOP('',(#789,#790,#791,#792));
#157=EDGE_LOOP('',(#793,#794,#795,#796));
#158=EDGE_LOOP('',(#797,#798,#799,#800));
#159=EDGE_LOOP('',(#801,#802,#803,#804));
#160=EDGE_LOOP('',(#805,#806,#807,#808));
#161=EDGE_LOOP('',(#809,#810,#811,#812));
#162=EDGE_LOOP('',(#813,#814,#815,#816));
#163=EDGE_LOOP('',(#817,#818,#819,#820));
#164=EDGE_LOOP('',(#821,#822,#823,#824));
#165=EDGE_LOOP('',(#825,#826,#827,#828));
#166=EDGE_LOOP('',(#829,#830,#831,#832));
#167=EDGE_LOOP('',(#833,#834,#835,#836));
#168=EDGE_LOOP('',(#837,#838,#839,#840));
#169=EDGE_LOOP('',(#841,#842,#843,#844));
#170=EDGE_LOOP('',(#845));
#171=EDGE_LOOP('',(#846));
#172=EDGE_LOOP('',(#847));
#173=EDGE_LOOP('',(#848));
#174=EDGE_LOOP('',(#849));
#175=EDGE_LOOP('',(#850));
#176=EDGE_LOOP('',(#851));
#177=EDGE_LOOP('',(#852,#853,#854,#855,#856,#857));
#178=EDGE_LOOP('',(#858,#859,#860,#861,#862,#863));
#179=EDGE_LOOP('',(#864,#865,#866,#867,#868,#869));
#180=EDGE_LOOP('',(#870,#871,#872,#873,#874,#875));
#181=EDGE_LOOP('',(#876,#877,#878,#879,#880,#881));
#182=EDGE_LOOP('',(#882,#883,#884,#885,#886,#887));
#183=EDGE_LOOP('',(#888));
#184=EDGE_LOOP('',(#889,#890,#891,#892));
#185=CIRCLE('',#974,44.0485140319213);
#186=CIRCLE('',#975,44.0485140319213);
#187=CIRCLE('',#977,44.0485140319213);
#188=CIRCLE('',#978,44.0485140319213);
#189=CIRCLE('',#980,44.0485140319213);
#190=CIRCLE('',#981,44.0485140319213);
#191=CIRCLE('',#983,44.0485140319213);
#192=CIRCLE('',#984,44.0485140319213);
#193=CIRCLE('',#986,44.0485140319213);
#194=CIRCLE('',#987,44.0485140319213);
#195=CIRCLE('',#989,4.);
#196=CIRCLE('',#990,4.);
#197=CIRCLE('',#992,1.65);
#198=CIRCLE('',#993,1.65);
#199=CIRCLE('',#995,1.65);
#200=CIRCLE('',#996,1.65);
#201=CIRCLE('',#998,1.65);
#202=CIRCLE('',#999,1.65);
#203=CIRCLE('',#1001,1.65);
#204=CIRCLE('',#1002,1.65);
#205=CIRCLE('',#1004,1.65);
#206=CIRCLE('',#1005,1.65);
#207=CIRCLE('',#1007,1.65);
#208=CIRCLE('',#1008,1.65);
#209=CIRCLE('',#1010,45.5000006780028);
#210=CIRCLE('',#1011,44.0485140319213);
#211=CIRCLE('',#1012,18.0000002682209);
#212=CIRCLE('',#1013,18.0000002682209);
#213=CIRCLE('',#1014,18.0000002682209);
#214=CIRCLE('',#1015,18.0000002682209);
#215=CIRCLE('',#1016,18.0000002682209);
#216=CIRCLE('',#1017,18.0000002682209);
#217=CIRCLE('',#1020,18.0000002682209);
#218=CIRCLE('',#1025,44.0485140319213);
#219=CIRCLE('',#1030,18.0000002682209);
#220=CIRCLE('',#1036,18.0000002682209);
#221=CIRCLE('',#1042,18.0000002682209);
#222=CIRCLE('',#1048,18.0000002682209);
#223=CIRCLE('',#1054,18.0000002682209);
#224=CIRCLE('',#1057,45.5000006780028);
#225=LINE('',#1329,#317);
#226=LINE('',#1333,#318);
#227=LINE('',#1338,#319);
#228=LINE('',#1342,#320);
#229=LINE('',#1347,#321);
#230=LINE('',#1351,#322);
#231=LINE('',#1356,#323);
#232=LINE('',#1360,#324);
#233=LINE('',#1367,#325);
#234=LINE('',#1370,#326);
#235=LINE('',#1375,#327);
#236=LINE('',#1381,#328);
#237=LINE('',#1387,#329);
#238=LINE('',#1393,#330);
#239=LINE('',#1399,#331);
#240=LINE('',#1405,#332);
#241=LINE('',#1411,#333);
#242=LINE('',#1420,#334);
#243=LINE('',#1422,#335);
#244=LINE('',#1426,#336);
#245=LINE('',#1427,#337);
#246=LINE('',#1429,#338);
#247=LINE('',#1431,#339);
#248=LINE('',#1435,#340);
#249=LINE('',#1436,#341);
#250=LINE('',#1438,#342);
#251=LINE('',#1440,#343);
#252=LINE('',#1444,#344);
#253=LINE('',#1445,#345);
#254=LINE('',#1447,#346);
#255=LINE('',#1449,#347);
#256=LINE('',#1453,#348);
#257=LINE('',#1454,#349);
#258=LINE('',#1456,#350);
#259=LINE('',#1458,#351);
#260=LINE('',#1462,#352);
#261=LINE('',#1463,#353);
#262=LINE('',#1465,#354);
#263=LINE('',#1467,#355);
#264=LINE('',#1471,#356);
#265=LINE('',#1472,#357);
#266=LINE('',#1476,#358);
#267=LINE('',#1477,#359);
#268=LINE('',#1478,#360);
#269=LINE('',#1482,#361);
#270=LINE('',#1484,#362);
#271=LINE('',#1487,#363);
#272=LINE('',#1488,#364);
#273=LINE('',#1490,#365);
#274=LINE('',#1493,#366);
#275=LINE('',#1495,#367);
#276=LINE('',#1499,#368);
#277=LINE('',#1500,#369);
#278=LINE('',#1503,#370);
#279=LINE('',#1504,#371);
#280=LINE('',#1507,#372);
#281=LINE('',#1508,#373);
#282=LINE('',#1512,#374);
#283=LINE('',#1514,#375);
#284=LINE('',#1517,#376);
#285=LINE('',#1518,#377);
#286=LINE('',#1521,#378);
#287=LINE('',#1522,#379);
#288=LINE('',#1525,#380);
#289=LINE('',#1526,#381);
#290=LINE('',#1530,#382);
#291=LINE('',#1532,#383);
#292=LINE('',#1535,#384);
#293=LINE('',#1536,#385);
#294=LINE('',#1539,#386);
#295=LINE('',#1540,#387);
#296=LINE('',#1543,#388);
#297=LINE('',#1544,#389);
#298=LINE('',#1548,#390);
#299=LINE('',#1550,#391);
#300=LINE('',#1553,#392);
#301=LINE('',#1554,#393);
#302=LINE('',#1557,#394);
#303=LINE('',#1558,#395);
#304=LINE('',#1561,#396);
#305=LINE('',#1562,#397);
#306=LINE('',#1566,#398);
#307=LINE('',#1568,#399);
#308=LINE('',#1571,#400);
#309=LINE('',#1572,#401);
#310=LINE('',#1575,#402);
#311=LINE('',#1576,#403);
#312=LINE('',#1579,#404);
#313=LINE('',#1580,#405);
#314=LINE('',#1584,#406);
#315=LINE('',#1586,#407);
#316=LINE('',#1591,#408);
#317=VECTOR('',#1063,10.);
#318=VECTOR('',#1066,10.);
#319=VECTOR('',#1071,10.);
#320=VECTOR('',#1074,10.);
#321=VECTOR('',#1079,10.);
#322=VECTOR('',#1082,10.);
#323=VECTOR('',#1087,10.);
#324=VECTOR('',#1090,10.);
#325=VECTOR('',#1097,10.);
#326=VECTOR('',#1100,10.);
#327=VECTOR('',#1105,4.);
#328=VECTOR('',#1112,1.65);
#329=VECTOR('',#1119,1.65);
#330=VECTOR('',#1126,1.65);
#331=VECTOR('',#1133,1.65);
#332=VECTOR('',#1140,1.65);
#333=VECTOR('',#1147,1.65);
#334=VECTOR('',#1156,10.);
#335=VECTOR('',#1157,10.);
#336=VECTOR('',#1160,10.);
#337=VECTOR('',#1161,10.);
#338=VECTOR('',#1162,10.);
#339=VECTOR('',#1163,10.);
#340=VECTOR('',#1166,10.);
#341=VECTOR('',#1167,10.);
#342=VECTOR('',#1168,10.);
#343=VECTOR('',#1169,10.);
#344=VECTOR('',#1172,10.);
#345=VECTOR('',#1173,10.);
#346=VECTOR('',#1174,10.);
#347=VECTOR('',#1175,10.);
#348=VECTOR('',#1178,10.);
#349=VECTOR('',#1179,10.);
#350=VECTOR('',#1180,10.);
#351=VECTOR('',#1181,10.);
#352=VECTOR('',#1184,10.);
#353=VECTOR('',#1185,10.);
#354=VECTOR('',#1186,10.);
#355=VECTOR('',#1187,10.);
#356=VECTOR('',#1190,10.);
#357=VECTOR('',#1191,10.);
#358=VECTOR('',#1194,10.);
#359=VECTOR('',#1195,10.);
#360=VECTOR('',#1196,10.);
#361=VECTOR('',#1201,10.);
#362=VECTOR('',#1204,10.);
#363=VECTOR('',#1207,10.);
#364=VECTOR('',#1208,10.);
#365=VECTOR('',#1211,10.);
#366=VECTOR('',#1214,10.);
#367=VECTOR('',#1215,10.);
#368=VECTOR('',#1220,10.);
#369=VECTOR('',#1221,10.);
#370=VECTOR('',#1224,10.);
#371=VECTOR('',#1225,10.);
#372=VECTOR('',#1228,10.);
#373=VECTOR('',#1229,10.);
#374=VECTOR('',#1234,10.);
#375=VECTOR('',#1237,10.);
#376=VECTOR('',#1240,10.);
#377=VECTOR('',#1241,10.);
#378=VECTOR('',#1244,10.);
#379=VECTOR('',#1245,10.);
#380=VECTOR('',#1248,10.);
#381=VECTOR('',#1249,10.);
#382=VECTOR('',#1254,10.);
#383=VECTOR('',#1257,10.);
#384=VECTOR('',#1260,10.);
#385=VECTOR('',#1261,10.);
#386=VECTOR('',#1264,10.);
#387=VECTOR('',#1265,10.);
#388=VECTOR('',#1268,10.);
#389=VECTOR('',#1269,10.);
#390=VECTOR('',#1274,10.);
#391=VECTOR('',#1277,10.);
#392=VECTOR('',#1280,10.);
#393=VECTOR('',#1281,10.);
#394=VECTOR('',#1284,10.);
#395=VECTOR('',#1285,10.);
#396=VECTOR('',#1288,10.);
#397=VECTOR('',#1289,10.);
#398=VECTOR('',#1294,10.);
#399=VECTOR('',#1297,10.);
#400=VECTOR('',#1300,10.);
#401=VECTOR('',#1301,10.);
#402=VECTOR('',#1304,10.);
#403=VECTOR('',#1305,10.);
#404=VECTOR('',#1308,10.);
#405=VECTOR('',#1309,10.);
#406=VECTOR('',#1314,10.);
#407=VECTOR('',#1317,10.);
#408=VECTOR('',#1324,45.5000006780028);
#409=VERTEX_POINT('',#1327);
#410=VERTEX_POINT('',#1328);
#411=VERTEX_POINT('',#1330);
#412=VERTEX_POINT('',#1332);
#413=VERTEX_POINT('',#1336);
#414=VERTEX_POINT('',#1337);
#415=VERTEX_POINT('',#1339);
#416=VERTEX_POINT('',#1341);
#417=VERTEX_POINT('',#1345);
#418=VERTEX_POINT('',#1346);
#419=VERTEX_POINT('',#1348);
#420=VERTEX_POINT('',#1350);
#421=VERTEX_POINT('',#1354);
#422=VERTEX_POINT('',#1355);
#423=VERTEX_POINT('',#1357);
#424=VERTEX_POINT('',#1359);
#425=VERTEX_POINT('',#1363);
#426=VERTEX_POINT('',#1364);
#427=VERTEX_POINT('',#1366);
#428=VERTEX_POINT('',#1368);
#429=VERTEX_POINT('',#1372);
#430=VERTEX_POINT('',#1374);
#431=VERTEX_POINT('',#1378);
#432=VERTEX_POINT('',#1380);
#433=VERTEX_POINT('',#1384);
#434=VERTEX_POINT('',#1386);
#435=VERTEX_POINT('',#1390);
#436=VERTEX_POINT('',#1392);
#437=VERTEX_POINT('',#1396);
#438=VERTEX_POINT('',#1398);
#439=VERTEX_POINT('',#1402);
#440=VERTEX_POINT('',#1404);
#441=VERTEX_POINT('',#1408);
#442=VERTEX_POINT('',#1410);
#443=VERTEX_POINT('',#1414);
#444=VERTEX_POINT('',#1416);
#445=VERTEX_POINT('',#1417);
#446=VERTEX_POINT('',#1419);
#447=VERTEX_POINT('',#1421);
#448=VERTEX_POINT('',#1423);
#449=VERTEX_POINT('',#1425);
#450=VERTEX_POINT('',#1428);
#451=VERTEX_POINT('',#1430);
#452=VERTEX_POINT('',#1432);
#453=VERTEX_POINT('',#1434);
#454=VERTEX_POINT('',#1437);
#455=VERTEX_POINT('',#1439);
#456=VERTEX_POINT('',#1441);
#457=VERTEX_POINT('',#1443);
#458=VERTEX_POINT('',#1446);
#459=VERTEX_POINT('',#1448);
#460=VERTEX_POINT('',#1450);
#461=VERTEX_POINT('',#1452);
#462=VERTEX_POINT('',#1455);
#463=VERTEX_POINT('',#1457);
#464=VERTEX_POINT('',#1459);
#465=VERTEX_POINT('',#1461);
#466=VERTEX_POINT('',#1464);
#467=VERTEX_POINT('',#1466);
#468=VERTEX_POINT('',#1468);
#469=VERTEX_POINT('',#1470);
#470=VERTEX_POINT('',#1474);
#471=VERTEX_POINT('',#1475);
#472=VERTEX_POINT('',#1480);
#473=VERTEX_POINT('',#1486);
#474=VERTEX_POINT('',#1492);
#475=VERTEX_POINT('',#1494);
#476=VERTEX_POINT('',#1498);
#477=VERTEX_POINT('',#1502);
#478=VERTEX_POINT('',#1506);
#479=VERTEX_POINT('',#1510);
#480=VERTEX_POINT('',#1516);
#481=VERTEX_POINT('',#1520);
#482=VERTEX_POINT('',#1524);
#483=VERTEX_POINT('',#1528);
#484=VERTEX_POINT('',#1534);
#485=VERTEX_POINT('',#1538);
#486=VERTEX_POINT('',#1542);
#487=VERTEX_POINT('',#1546);
#488=VERTEX_POINT('',#1552);
#489=VERTEX_POINT('',#1556);
#490=VERTEX_POINT('',#1560);
#491=VERTEX_POINT('',#1564);
#492=VERTEX_POINT('',#1570);
#493=VERTEX_POINT('',#1574);
#494=VERTEX_POINT('',#1578);
#495=VERTEX_POINT('',#1582);
#496=VERTEX_POINT('',#1588);
#497=EDGE_CURVE('',#409,#410,#225,.T.);
#498=EDGE_CURVE('',#410,#411,#185,.T.);
#499=EDGE_CURVE('',#411,#412,#226,.T.);
#500=EDGE_CURVE('',#412,#409,#186,.T.);
#501=EDGE_CURVE('',#413,#414,#227,.T.);
#502=EDGE_CURVE('',#414,#415,#187,.T.);
#503=EDGE_CURVE('',#415,#416,#228,.T.);
#504=EDGE_CURVE('',#416,#413,#188,.T.);
#505=EDGE_CURVE('',#417,#418,#229,.T.);
#506=EDGE_CURVE('',#418,#419,#189,.T.);
#507=EDGE_CURVE('',#419,#420,#230,.T.);
#508=EDGE_CURVE('',#420,#417,#190,.T.);
#509=EDGE_CURVE('',#421,#422,#231,.T.);
#510=EDGE_CURVE('',#422,#423,#191,.T.);
#511=EDGE_CURVE('',#423,#424,#232,.T.);
#512=EDGE_CURVE('',#424,#421,#192,.T.);
#513=EDGE_CURVE('',#425,#426,#193,.T.);
#514=EDGE_CURVE('',#426,#427,#233,.T.);
#515=EDGE_CURVE('',#427,#428,#194,.T.);
#516=EDGE_CURVE('',#428,#425,#234,.T.);
#517=EDGE_CURVE('',#429,#429,#195,.T.);
#518=EDGE_CURVE('',#429,#430,#235,.T.);
#519=EDGE_CURVE('',#430,#430,#196,.T.);
#520=EDGE_CURVE('',#431,#431,#197,.T.);
#521=EDGE_CURVE('',#431,#432,#236,.T.);
#522=EDGE_CURVE('',#432,#432,#198,.T.);
#523=EDGE_CURVE('',#433,#433,#199,.T.);
#524=EDGE_CURVE('',#433,#434,#237,.T.);
#525=EDGE_CURVE('',#434,#434,#200,.T.);
#526=EDGE_CURVE('',#435,#435,#201,.T.);
#527=EDGE_CURVE('',#435,#436,#238,.T.);
#528=EDGE_CURVE('',#436,#436,#202,.T.);
#529=EDGE_CURVE('',#437,#437,#203,.T.);
#530=EDGE_CURVE('',#437,#438,#239,.T.);
#531=EDGE_CURVE('',#438,#438,#204,.T.);
#532=EDGE_CURVE('',#439,#439,#205,.T.);
#533=EDGE_CURVE('',#439,#440,#240,.T.);
#534=EDGE_CURVE('',#440,#440,#206,.T.);
#535=EDGE_CURVE('',#441,#441,#207,.T.);
#536=EDGE_CURVE('',#441,#442,#241,.T.);
#537=EDGE_CURVE('',#442,#442,#208,.T.);
#538=EDGE_CURVE('',#443,#443,#209,.T.);
#539=EDGE_CURVE('',#444,#445,#210,.T.);
#540=EDGE_CURVE('',#446,#444,#242,.T.);
#541=EDGE_CURVE('',#447,#446,#243,.T.);
#542=EDGE_CURVE('',#448,#447,#211,.T.);
#543=EDGE_CURVE('',#448,#449,#244,.F.);
#544=EDGE_CURVE('',#445,#449,#245,.T.);
#545=EDGE_CURVE('',#450,#410,#246,.T.);
#546=EDGE_CURVE('',#451,#450,#247,.T.);
#547=EDGE_CURVE('',#452,#451,#212,.T.);
#548=EDGE_CURVE('',#452,#453,#248,.F.);
#549=EDGE_CURVE('',#411,#453,#249,.T.);
#550=EDGE_CURVE('',#454,#414,#250,.T.);
#551=EDGE_CURVE('',#455,#454,#251,.T.);
#552=EDGE_CURVE('',#456,#455,#213,.T.);
#553=EDGE_CURVE('',#456,#457,#252,.F.);
#554=EDGE_CURVE('',#415,#457,#253,.T.);
#555=EDGE_CURVE('',#458,#418,#254,.T.);
#556=EDGE_CURVE('',#459,#458,#255,.T.);
#557=EDGE_CURVE('',#460,#459,#214,.T.);
#558=EDGE_CURVE('',#460,#461,#256,.F.);
#559=EDGE_CURVE('',#419,#461,#257,.T.);
#560=EDGE_CURVE('',#462,#422,#258,.T.);
#561=EDGE_CURVE('',#463,#462,#259,.T.);
#562=EDGE_CURVE('',#464,#463,#215,.T.);
#563=EDGE_CURVE('',#464,#465,#260,.F.);
#564=EDGE_CURVE('',#423,#465,#261,.T.);
#565=EDGE_CURVE('',#466,#425,#262,.T.);
#566=EDGE_CURVE('',#467,#466,#263,.T.);
#567=EDGE_CURVE('',#468,#467,#216,.T.);
#568=EDGE_CURVE('',#468,#469,#264,.F.);
#569=EDGE_CURVE('',#426,#469,#265,.T.);
#570=EDGE_CURVE('',#470,#471,#266,.T.);
#571=EDGE_CURVE('',#453,#471,#267,.T.);
#572=EDGE_CURVE('',#452,#470,#268,.T.);
#573=EDGE_CURVE('',#472,#470,#217,.T.);
#574=EDGE_CURVE('',#451,#472,#269,.T.);
#575=EDGE_CURVE('',#471,#412,#270,.T.);
#576=EDGE_CURVE('',#473,#472,#271,.T.);
#577=EDGE_CURVE('',#450,#473,#272,.T.);
#578=EDGE_CURVE('',#409,#473,#273,.T.);
#579=EDGE_CURVE('',#474,#444,#274,.T.);
#580=EDGE_CURVE('',#445,#475,#275,.T.);
#581=EDGE_CURVE('',#475,#474,#218,.T.);
#582=EDGE_CURVE('',#474,#476,#276,.T.);
#583=EDGE_CURVE('',#446,#476,#277,.T.);
#584=EDGE_CURVE('',#476,#477,#278,.T.);
#585=EDGE_CURVE('',#447,#477,#279,.T.);
#586=EDGE_CURVE('',#478,#475,#280,.T.);
#587=EDGE_CURVE('',#449,#478,#281,.T.);
#588=EDGE_CURVE('',#477,#479,#219,.T.);
#589=EDGE_CURVE('',#448,#479,#282,.T.);
#590=EDGE_CURVE('',#479,#478,#283,.T.);
#591=EDGE_CURVE('',#413,#480,#284,.T.);
#592=EDGE_CURVE('',#454,#480,#285,.T.);
#593=EDGE_CURVE('',#480,#481,#286,.T.);
#594=EDGE_CURVE('',#455,#481,#287,.T.);
#595=EDGE_CURVE('',#482,#416,#288,.T.);
#596=EDGE_CURVE('',#457,#482,#289,.T.);
#597=EDGE_CURVE('',#481,#483,#220,.T.);
#598=EDGE_CURVE('',#456,#483,#290,.T.);
#599=EDGE_CURVE('',#483,#482,#291,.T.);
#600=EDGE_CURVE('',#417,#484,#292,.T.);
#601=EDGE_CURVE('',#458,#484,#293,.T.);
#602=EDGE_CURVE('',#484,#485,#294,.T.);
#603=EDGE_CURVE('',#459,#485,#295,.T.);
#604=EDGE_CURVE('',#486,#420,#296,.T.);
#605=EDGE_CURVE('',#461,#486,#297,.T.);
#606=EDGE_CURVE('',#485,#487,#221,.T.);
#607=EDGE_CURVE('',#460,#487,#298,.T.);
#608=EDGE_CURVE('',#487,#486,#299,.T.);
#609=EDGE_CURVE('',#421,#488,#300,.T.);
#610=EDGE_CURVE('',#462,#488,#301,.T.);
#611=EDGE_CURVE('',#488,#489,#302,.T.);
#612=EDGE_CURVE('',#463,#489,#303,.T.);
#613=EDGE_CURVE('',#490,#424,#304,.T.);
#614=EDGE_CURVE('',#465,#490,#305,.T.);
#615=EDGE_CURVE('',#489,#491,#222,.T.);
#616=EDGE_CURVE('',#464,#491,#306,.T.);
#617=EDGE_CURVE('',#491,#490,#307,.T.);
#618=EDGE_CURVE('',#428,#492,#308,.T.);
#619=EDGE_CURVE('',#466,#492,#309,.T.);
#620=EDGE_CURVE('',#492,#493,#310,.T.);
#621=EDGE_CURVE('',#467,#493,#311,.T.);
#622=EDGE_CURVE('',#494,#427,#312,.T.);
#623=EDGE_CURVE('',#469,#494,#313,.T.);
#624=EDGE_CURVE('',#493,#495,#223,.T.);
#625=EDGE_CURVE('',#468,#495,#314,.T.);
#626=EDGE_CURVE('',#495,#494,#315,.T.);
#627=EDGE_CURVE('',#496,#496,#224,.T.);
#628=EDGE_CURVE('',#496,#443,#316,.T.);
#629=ORIENTED_EDGE('',*,*,#497,.T.);
#630=ORIENTED_EDGE('',*,*,#498,.T.);
#631=ORIENTED_EDGE('',*,*,#499,.T.);
#632=ORIENTED_EDGE('',*,*,#500,.T.);
#633=ORIENTED_EDGE('',*,*,#501,.T.);
#634=ORIENTED_EDGE('',*,*,#502,.T.);
#635=ORIENTED_EDGE('',*,*,#503,.T.);
#636=ORIENTED_EDGE('',*,*,#504,.T.);
#637=ORIENTED_EDGE('',*,*,#505,.T.);
#638=ORIENTED_EDGE('',*,*,#506,.T.);
#639=ORIENTED_EDGE('',*,*,#507,.T.);
#640=ORIENTED_EDGE('',*,*,#508,.T.);
#641=ORIENTED_EDGE('',*,*,#509,.T.);
#642=ORIENTED_EDGE('',*,*,#510,.T.);
#643=ORIENTED_EDGE('',*,*,#511,.T.);
#644=ORIENTED_EDGE('',*,*,#512,.T.);
#645=ORIENTED_EDGE('',*,*,#513,.T.);
#646=ORIENTED_EDGE('',*,*,#514,.T.);
#647=ORIENTED_EDGE('',*,*,#515,.T.);
#648=ORIENTED_EDGE('',*,*,#516,.T.);
#649=ORIENTED_EDGE('',*,*,#517,.F.);
#650=ORIENTED_EDGE('',*,*,#518,.T.);
#651=ORIENTED_EDGE('',*,*,#519,.F.);
#652=ORIENTED_EDGE('',*,*,#518,.F.);
#653=ORIENTED_EDGE('',*,*,#520,.F.);
#654=ORIENTED_EDGE('',*,*,#521,.T.);
#655=ORIENTED_EDGE('',*,*,#522,.F.);
#656=ORIENTED_EDGE('',*,*,#521,.F.);
#657=ORIENTED_EDGE('',*,*,#523,.F.);
#658=ORIENTED_EDGE('',*,*,#524,.T.);
#659=ORIENTED_EDGE('',*,*,#525,.F.);
#660=ORIENTED_EDGE('',*,*,#524,.F.);
#661=ORIENTED_EDGE('',*,*,#526,.F.);
#662=ORIENTED_EDGE('',*,*,#527,.T.);
#663=ORIENTED_EDGE('',*,*,#528,.F.);
#664=ORIENTED_EDGE('',*,*,#527,.F.);
#665=ORIENTED_EDGE('',*,*,#529,.F.);
#666=ORIENTED_EDGE('',*,*,#530,.T.);
#667=ORIENTED_EDGE('',*,*,#531,.F.);
#668=ORIENTED_EDGE('',*,*,#530,.F.);
#669=ORIENTED_EDGE('',*,*,#532,.F.);
#670=ORIENTED_EDGE('',*,*,#533,.T.);
#671=ORIENTED_EDGE('',*,*,#534,.F.);
#672=ORIENTED_EDGE('',*,*,#533,.F.);
#673=ORIENTED_EDGE('',*,*,#535,.F.);
#674=ORIENTED_EDGE('',*,*,#536,.T.);
#675=ORIENTED_EDGE('',*,*,#537,.F.);
#676=ORIENTED_EDGE('',*,*,#536,.F.);
#677=ORIENTED_EDGE('',*,*,#538,.F.);
#678=ORIENTED_EDGE('',*,*,#539,.F.);
#679=ORIENTED_EDGE('',*,*,#540,.F.);
#680=ORIENTED_EDGE('',*,*,#541,.F.);
#681=ORIENTED_EDGE('',*,*,#542,.F.);
#682=ORIENTED_EDGE('',*,*,#543,.T.);
#683=ORIENTED_EDGE('',*,*,#544,.F.);
#684=ORIENTED_EDGE('',*,*,#545,.F.);
#685=ORIENTED_EDGE('',*,*,#546,.F.);
#686=ORIENTED_EDGE('',*,*,#547,.F.);
#687=ORIENTED_EDGE('',*,*,#548,.T.);
#688=ORIENTED_EDGE('',*,*,#549,.F.);
#689=ORIENTED_EDGE('',*,*,#498,.F.);
#690=ORIENTED_EDGE('',*,*,#502,.F.);
#691=ORIENTED_EDGE('',*,*,#550,.F.);
#692=ORIENTED_EDGE('',*,*,#551,.F.);
#693=ORIENTED_EDGE('',*,*,#552,.F.);
#694=ORIENTED_EDGE('',*,*,#553,.T.);
#695=ORIENTED_EDGE('',*,*,#554,.F.);
#696=ORIENTED_EDGE('',*,*,#506,.F.);
#697=ORIENTED_EDGE('',*,*,#555,.F.);
#698=ORIENTED_EDGE('',*,*,#556,.F.);
#699=ORIENTED_EDGE('',*,*,#557,.F.);
#700=ORIENTED_EDGE('',*,*,#558,.T.);
#701=ORIENTED_EDGE('',*,*,#559,.F.);
#702=ORIENTED_EDGE('',*,*,#510,.F.);
#703=ORIENTED_EDGE('',*,*,#560,.F.);
#704=ORIENTED_EDGE('',*,*,#561,.F.);
#705=ORIENTED_EDGE('',*,*,#562,.F.);
#706=ORIENTED_EDGE('',*,*,#563,.T.);
#707=ORIENTED_EDGE('',*,*,#564,.F.);
#708=ORIENTED_EDGE('',*,*,#519,.T.);
#709=ORIENTED_EDGE('',*,*,#513,.F.);
#710=ORIENTED_EDGE('',*,*,#565,.F.);
#711=ORIENTED_EDGE('',*,*,#566,.F.);
#712=ORIENTED_EDGE('',*,*,#567,.F.);
#713=ORIENTED_EDGE('',*,*,#568,.T.);
#714=ORIENTED_EDGE('',*,*,#569,.F.);
#715=ORIENTED_EDGE('',*,*,#535,.T.);
#716=ORIENTED_EDGE('',*,*,#532,.T.);
#717=ORIENTED_EDGE('',*,*,#529,.T.);
#718=ORIENTED_EDGE('',*,*,#526,.T.);
#719=ORIENTED_EDGE('',*,*,#523,.T.);
#720=ORIENTED_EDGE('',*,*,#520,.T.);
#721=ORIENTED_EDGE('',*,*,#570,.T.);
#722=ORIENTED_EDGE('',*,*,#571,.F.);
#723=ORIENTED_EDGE('',*,*,#548,.F.);
#724=ORIENTED_EDGE('',*,*,#572,.T.);
#725=ORIENTED_EDGE('',*,*,#573,.T.);
#726=ORIENTED_EDGE('',*,*,#572,.F.);
#727=ORIENTED_EDGE('',*,*,#547,.T.);
#728=ORIENTED_EDGE('',*,*,#574,.T.);
#729=ORIENTED_EDGE('',*,*,#575,.T.);
#730=ORIENTED_EDGE('',*,*,#499,.F.);
#731=ORIENTED_EDGE('',*,*,#549,.T.);
#732=ORIENTED_EDGE('',*,*,#571,.T.);
#733=ORIENTED_EDGE('',*,*,#576,.T.);
#734=ORIENTED_EDGE('',*,*,#574,.F.);
#735=ORIENTED_EDGE('',*,*,#546,.T.);
#736=ORIENTED_EDGE('',*,*,#577,.T.);
#737=ORIENTED_EDGE('',*,*,#578,.T.);
#738=ORIENTED_EDGE('',*,*,#577,.F.);
#739=ORIENTED_EDGE('',*,*,#545,.T.);
#740=ORIENTED_EDGE('',*,*,#497,.F.);
#741=ORIENTED_EDGE('',*,*,#579,.T.);
#742=ORIENTED_EDGE('',*,*,#539,.T.);
#743=ORIENTED_EDGE('',*,*,#580,.T.);
#744=ORIENTED_EDGE('',*,*,#581,.T.);
#745=ORIENTED_EDGE('',*,*,#582,.T.);
#746=ORIENTED_EDGE('',*,*,#583,.F.);
#747=ORIENTED_EDGE('',*,*,#540,.T.);
#748=ORIENTED_EDGE('',*,*,#579,.F.);
#749=ORIENTED_EDGE('',*,*,#584,.T.);
#750=ORIENTED_EDGE('',*,*,#585,.F.);
#751=ORIENTED_EDGE('',*,*,#541,.T.);
#752=ORIENTED_EDGE('',*,*,#583,.T.);
#753=ORIENTED_EDGE('',*,*,#586,.T.);
#754=ORIENTED_EDGE('',*,*,#580,.F.);
#755=ORIENTED_EDGE('',*,*,#544,.T.);
#756=ORIENTED_EDGE('',*,*,#587,.T.);
#757=ORIENTED_EDGE('',*,*,#588,.T.);
#758=ORIENTED_EDGE('',*,*,#589,.F.);
#759=ORIENTED_EDGE('',*,*,#542,.T.);
#760=ORIENTED_EDGE('',*,*,#585,.T.);
#761=ORIENTED_EDGE('',*,*,#590,.T.);
#762=ORIENTED_EDGE('',*,*,#587,.F.);
#763=ORIENTED_EDGE('',*,*,#543,.F.);
#764=ORIENTED_EDGE('',*,*,#589,.T.);
#765=ORIENTED_EDGE('',*,*,#591,.T.);
#766=ORIENTED_EDGE('',*,*,#592,.F.);
#767=ORIENTED_EDGE('',*,*,#550,.T.);
#768=ORIENTED_EDGE('',*,*,#501,.F.);
#769=ORIENTED_EDGE('',*,*,#593,.T.);
#770=ORIENTED_EDGE('',*,*,#594,.F.);
#771=ORIENTED_EDGE('',*,*,#551,.T.);
#772=ORIENTED_EDGE('',*,*,#592,.T.);
#773=ORIENTED_EDGE('',*,*,#595,.T.);
#774=ORIENTED_EDGE('',*,*,#503,.F.);
#775=ORIENTED_EDGE('',*,*,#554,.T.);
#776=ORIENTED_EDGE('',*,*,#596,.T.);
#777=ORIENTED_EDGE('',*,*,#597,.T.);
#778=ORIENTED_EDGE('',*,*,#598,.F.);
#779=ORIENTED_EDGE('',*,*,#552,.T.);
#780=ORIENTED_EDGE('',*,*,#594,.T.);
#781=ORIENTED_EDGE('',*,*,#599,.T.);
#782=ORIENTED_EDGE('',*,*,#596,.F.);
#783=ORIENTED_EDGE('',*,*,#553,.F.);
#784=ORIENTED_EDGE('',*,*,#598,.T.);
#785=ORIENTED_EDGE('',*,*,#600,.T.);
#786=ORIENTED_EDGE('',*,*,#601,.F.);
#787=ORIENTED_EDGE('',*,*,#555,.T.);
#788=ORIENTED_EDGE('',*,*,#505,.F.);
#789=ORIENTED_EDGE('',*,*,#602,.T.);
#790=ORIENTED_EDGE('',*,*,#603,.F.);
#791=ORIENTED_EDGE('',*,*,#556,.T.);
#792=ORIENTED_EDGE('',*,*,#601,.T.);
#793=ORIENTED_EDGE('',*,*,#604,.T.);
#794=ORIENTED_EDGE('',*,*,#507,.F.);
#795=ORIENTED_EDGE('',*,*,#559,.T.);
#796=ORIENTED_EDGE('',*,*,#605,.T.);
#797=ORIENTED_EDGE('',*,*,#606,.T.);
#798=ORIENTED_EDGE('',*,*,#607,.F.);
#799=ORIENTED_EDGE('',*,*,#557,.T.);
#800=ORIENTED_EDGE('',*,*,#603,.T.);
#801=ORIENTED_EDGE('',*,*,#608,.T.);
#802=ORIENTED_EDGE('',*,*,#605,.F.);
#803=ORIENTED_EDGE('',*,*,#558,.F.);
#804=ORIENTED_EDGE('',*,*,#607,.T.);
#805=ORIENTED_EDGE('',*,*,#609,.T.);
#806=ORIENTED_EDGE('',*,*,#610,.F.);
#807=ORIENTED_EDGE('',*,*,#560,.T.);
#808=ORIENTED_EDGE('',*,*,#509,.F.);
#809=ORIENTED_EDGE('',*,*,#611,.T.);
#810=ORIENTED_EDGE('',*,*,#612,.F.);
#811=ORIENTED_EDGE('',*,*,#561,.T.);
#812=ORIENTED_EDGE('',*,*,#610,.T.);
#813=ORIENTED_EDGE('',*,*,#613,.T.);
#814=ORIENTED_EDGE('',*,*,#511,.F.);
#815=ORIENTED_EDGE('',*,*,#564,.T.);
#816=ORIENTED_EDGE('',*,*,#614,.T.);
#817=ORIENTED_EDGE('',*,*,#615,.T.);
#818=ORIENTED_EDGE('',*,*,#616,.F.);
#819=ORIENTED_EDGE('',*,*,#562,.T.);
#820=ORIENTED_EDGE('',*,*,#612,.T.);
#821=ORIENTED_EDGE('',*,*,#617,.T.);
#822=ORIENTED_EDGE('',*,*,#614,.F.);
#823=ORIENTED_EDGE('',*,*,#563,.F.);
#824=ORIENTED_EDGE('',*,*,#616,.T.);
#825=ORIENTED_EDGE('',*,*,#618,.T.);
#826=ORIENTED_EDGE('',*,*,#619,.F.);
#827=ORIENTED_EDGE('',*,*,#565,.T.);
#828=ORIENTED_EDGE('',*,*,#516,.F.);
#829=ORIENTED_EDGE('',*,*,#620,.T.);
#830=ORIENTED_EDGE('',*,*,#621,.F.);
#831=ORIENTED_EDGE('',*,*,#566,.T.);
#832=ORIENTED_EDGE('',*,*,#619,.T.);
#833=ORIENTED_EDGE('',*,*,#622,.T.);
#834=ORIENTED_EDGE('',*,*,#514,.F.);
#835=ORIENTED_EDGE('',*,*,#569,.T.);
#836=ORIENTED_EDGE('',*,*,#623,.T.);
#837=ORIENTED_EDGE('',*,*,#624,.T.);
#838=ORIENTED_EDGE('',*,*,#625,.F.);
#839=ORIENTED_EDGE('',*,*,#567,.T.);
#840=ORIENTED_EDGE('',*,*,#621,.T.);
#841=ORIENTED_EDGE('',*,*,#626,.T.);
#842=ORIENTED_EDGE('',*,*,#623,.F.);
#843=ORIENTED_EDGE('',*,*,#568,.F.);
#844=ORIENTED_EDGE('',*,*,#625,.T.);
#845=ORIENTED_EDGE('',*,*,#627,.T.);
#846=ORIENTED_EDGE('',*,*,#522,.T.);
#847=ORIENTED_EDGE('',*,*,#525,.T.);
#848=ORIENTED_EDGE('',*,*,#528,.T.);
#849=ORIENTED_EDGE('',*,*,#531,.T.);
#850=ORIENTED_EDGE('',*,*,#534,.T.);
#851=ORIENTED_EDGE('',*,*,#537,.T.);
#852=ORIENTED_EDGE('',*,*,#570,.F.);
#853=ORIENTED_EDGE('',*,*,#573,.F.);
#854=ORIENTED_EDGE('',*,*,#576,.F.);
#855=ORIENTED_EDGE('',*,*,#578,.F.);
#856=ORIENTED_EDGE('',*,*,#500,.F.);
#857=ORIENTED_EDGE('',*,*,#575,.F.);
#858=ORIENTED_EDGE('',*,*,#582,.F.);
#859=ORIENTED_EDGE('',*,*,#581,.F.);
#860=ORIENTED_EDGE('',*,*,#586,.F.);
#861=ORIENTED_EDGE('',*,*,#590,.F.);
#862=ORIENTED_EDGE('',*,*,#588,.F.);
#863=ORIENTED_EDGE('',*,*,#584,.F.);
#864=ORIENTED_EDGE('',*,*,#591,.F.);
#865=ORIENTED_EDGE('',*,*,#504,.F.);
#866=ORIENTED_EDGE('',*,*,#595,.F.);
#867=ORIENTED_EDGE('',*,*,#599,.F.);
#868=ORIENTED_EDGE('',*,*,#597,.F.);
#869=ORIENTED_EDGE('',*,*,#593,.F.);
#870=ORIENTED_EDGE('',*,*,#600,.F.);
#871=ORIENTED_EDGE('',*,*,#508,.F.);
#872=ORIENTED_EDGE('',*,*,#604,.F.);
#873=ORIENTED_EDGE('',*,*,#608,.F.);
#874=ORIENTED_EDGE('',*,*,#606,.F.);
#875=ORIENTED_EDGE('',*,*,#602,.F.);
#876=ORIENTED_EDGE('',*,*,#609,.F.);
#877=ORIENTED_EDGE('',*,*,#512,.F.);
#878=ORIENTED_EDGE('',*,*,#613,.F.);
#879=ORIENTED_EDGE('',*,*,#617,.F.);
#880=ORIENTED_EDGE('',*,*,#615,.F.);
#881=ORIENTED_EDGE('',*,*,#611,.F.);
#882=ORIENTED_EDGE('',*,*,#618,.F.);
#883=ORIENTED_EDGE('',*,*,#515,.F.);
#884=ORIENTED_EDGE('',*,*,#622,.F.);
#885=ORIENTED_EDGE('',*,*,#626,.F.);
#886=ORIENTED_EDGE('',*,*,#624,.F.);
#887=ORIENTED_EDGE('',*,*,#620,.F.);
#888=ORIENTED_EDGE('',*,*,#517,.T.);
#889=ORIENTED_EDGE('',*,*,#627,.F.);
#890=ORIENTED_EDGE('',*,*,#628,.T.);
#891=ORIENTED_EDGE('',*,*,#538,.T.);
#892=ORIENTED_EDGE('',*,*,#628,.F.);
#893=CYLINDRICAL_SURFACE('',#973,44.0485140319213);
#894=CYLINDRICAL_SURFACE('',#976,44.0485140319213);
#895=CYLINDRICAL_SURFACE('',#979,44.0485140319213);
#896=CYLINDRICAL_SURFACE('',#982,44.0485140319213);
#897=CYLINDRICAL_SURFACE('',#985,44.0485140319213);
#898=CYLINDRICAL_SURFACE('',#988,4.);
#899=CYLINDRICAL_SURFACE('',#991,1.65);
#900=CYLINDRICAL_SURFACE('',#994,1.65);
#901=CYLINDRICAL_SURFACE('',#997,1.65);
#902=CYLINDRICAL_SURFACE('',#1000,1.65);
#903=CYLINDRICAL_SURFACE('',#1003,1.65);
#904=CYLINDRICAL_SURFACE('',#1006,1.65);
#905=CYLINDRICAL_SURFACE('',#1019,18.0000002682209);
#906=CYLINDRICAL_SURFACE('',#1024,44.0485140319213);
#907=CYLINDRICAL_SURFACE('',#1029,18.0000002682209);
#908=CYLINDRICAL_SURFACE('',#1035,18.0000002682209);
#909=CYLINDRICAL_SURFACE('',#1041,18.0000002682209);
#910=CYLINDRICAL_SURFACE('',#1047,18.0000002682209);
#911=CYLINDRICAL_SURFACE('',#1053,18.0000002682209);
#912=CYLINDRICAL_SURFACE('',#1058,45.5000006780028);
#913=ADVANCED_FACE('',(#67),#893,.F.);
#914=ADVANCED_FACE('',(#68),#894,.F.);
#915=ADVANCED_FACE('',(#69),#895,.F.);
#916=ADVANCED_FACE('',(#70),#896,.F.);
#917=ADVANCED_FACE('',(#71),#897,.F.);
#918=ADVANCED_FACE('',(#72),#898,.F.);
#919=ADVANCED_FACE('',(#73),#899,.F.);
#920=ADVANCED_FACE('',(#74),#900,.F.);
#921=ADVANCED_FACE('',(#75),#901,.F.);
#922=ADVANCED_FACE('',(#76),#902,.F.);
#923=ADVANCED_FACE('',(#77),#903,.F.);
#924=ADVANCED_FACE('',(#78),#904,.F.);
#925=ADVANCED_FACE('',(#79,#15,#16,#17,#18,#19,#20,#21,#22,#23,#24,#25,
#26,#27),#41,.F.);
#926=ADVANCED_FACE('',(#80),#42,.T.);
#927=ADVANCED_FACE('',(#81),#905,.T.);
#928=ADVANCED_FACE('',(#82),#43,.T.);
#929=ADVANCED_FACE('',(#83),#44,.T.);
#930=ADVANCED_FACE('',(#84),#45,.T.);
#931=ADVANCED_FACE('',(#85),#906,.F.);
#932=ADVANCED_FACE('',(#86),#46,.T.);
#933=ADVANCED_FACE('',(#87),#47,.T.);
#934=ADVANCED_FACE('',(#88),#48,.T.);
#935=ADVANCED_FACE('',(#89),#907,.T.);
#936=ADVANCED_FACE('',(#90),#49,.T.);
#937=ADVANCED_FACE('',(#91),#50,.T.);
#938=ADVANCED_FACE('',(#92),#51,.T.);
#939=ADVANCED_FACE('',(#93),#52,.T.);
#940=ADVANCED_FACE('',(#94),#908,.T.);
#941=ADVANCED_FACE('',(#95),#53,.T.);
#942=ADVANCED_FACE('',(#96),#54,.T.);
#943=ADVANCED_FACE('',(#97),#55,.T.);
#944=ADVANCED_FACE('',(#98),#56,.T.);
#945=ADVANCED_FACE('',(#99),#909,.T.);
#946=ADVANCED_FACE('',(#100),#57,.T.);
#947=ADVANCED_FACE('',(#101),#58,.T.);
#948=ADVANCED_FACE('',(#102),#59,.T.);
#949=ADVANCED_FACE('',(#103),#60,.T.);
#950=ADVANCED_FACE('',(#104),#910,.T.);
#951=ADVANCED_FACE('',(#105),#61,.T.);
#952=ADVANCED_FACE('',(#106),#62,.T.);
#953=ADVANCED_FACE('',(#107),#63,.T.);
#954=ADVANCED_FACE('',(#108),#64,.T.);
#955=ADVANCED_FACE('',(#109),#911,.T.);
#956=ADVANCED_FACE('',(#110),#65,.T.);
#957=ADVANCED_FACE('',(#111,#28,#29,#30,#31,#32,#33,#34,#35,#36,#37,#38,
#39,#40),#66,.T.);
#958=ADVANCED_FACE('',(#112),#912,.T.);
#959=CLOSED_SHELL('',(#913,#914,#915,#916,#917,#918,#919,#920,#921,#922,
#923,#924,#925,#926,#927,#928,#929,#930,#931,#932,#933,#934,#935,#936,#937,
#938,#939,#940,#941,#942,#943,#944,#945,#946,#947,#948,#949,#950,#951,#952,
#953,#954,#955,#956,#957,#958));
#960=DERIVED_UNIT_ELEMENT(#962,1.);
#961=DERIVED_UNIT_ELEMENT(#1597,-3.);
#962=(
MASS_UNIT()
NAMED_UNIT(*)
SI_UNIT(.KILO.,.GRAM.)
);
#963=DERIVED_UNIT((#960,#961));
#964=MEASURE_REPRESENTATION_ITEM('density measure',
POSITIVE_RATIO_MEASURE(7850.),#963);
#965=PROPERTY_DEFINITION_REPRESENTATION(#970,#967);
#966=PROPERTY_DEFINITION_REPRESENTATION(#971,#968);
#967=REPRESENTATION('material name',(#969),#1594);
#968=REPRESENTATION('density',(#964),#1594);
#969=DESCRIPTIVE_REPRESENTATION_ITEM('Stal','Stal');
#970=PROPERTY_DEFINITION('material property','material name',#1604);
#971=PROPERTY_DEFINITION('material property','density of part',#1604);
#972=AXIS2_PLACEMENT_3D('',#1325,#1059,#1060);
#973=AXIS2_PLACEMENT_3D('',#1326,#1061,#1062);
#974=AXIS2_PLACEMENT_3D('',#1331,#1064,#1065);
#975=AXIS2_PLACEMENT_3D('',#1334,#1067,#1068);
#976=AXIS2_PLACEMENT_3D('',#1335,#1069,#1070);
#977=AXIS2_PLACEMENT_3D('',#1340,#1072,#1073);
#978=AXIS2_PLACEMENT_3D('',#1343,#1075,#1076);
#979=AXIS2_PLACEMENT_3D('',#1344,#1077,#1078);
#980=AXIS2_PLACEMENT_3D('',#1349,#1080,#1081);
#981=AXIS2_PLACEMENT_3D('',#1352,#1083,#1084);
#982=AXIS2_PLACEMENT_3D('',#1353,#1085,#1086);
#983=AXIS2_PLACEMENT_3D('',#1358,#1088,#1089);
#984=AXIS2_PLACEMENT_3D('',#1361,#1091,#1092);
#985=AXIS2_PLACEMENT_3D('',#1362,#1093,#1094);
#986=AXIS2_PLACEMENT_3D('',#1365,#1095,#1096);
#987=AXIS2_PLACEMENT_3D('',#1369,#1098,#1099);
#988=AXIS2_PLACEMENT_3D('',#1371,#1101,#1102);
#989=AXIS2_PLACEMENT_3D('',#1373,#1103,#1104);
#990=AXIS2_PLACEMENT_3D('',#1376,#1106,#1107);
#991=AXIS2_PLACEMENT_3D('',#1377,#1108,#1109);
#992=AXIS2_PLACEMENT_3D('',#1379,#1110,#1111);
#993=AXIS2_PLACEMENT_3D('',#1382,#1113,#1114);
#994=AXIS2_PLACEMENT_3D('',#1383,#1115,#1116);
#995=AXIS2_PLACEMENT_3D('',#1385,#1117,#1118);
#996=AXIS2_PLACEMENT_3D('',#1388,#1120,#1121);
#997=AXIS2_PLACEMENT_3D('',#1389,#1122,#1123);
#998=AXIS2_PLACEMENT_3D('',#1391,#1124,#1125);
#999=AXIS2_PLACEMENT_3D('',#1394,#1127,#1128);
#1000=AXIS2_PLACEMENT_3D('',#1395,#1129,#1130);
#1001=AXIS2_PLACEMENT_3D('',#1397,#1131,#1132);
#1002=AXIS2_PLACEMENT_3D('',#1400,#1134,#1135);
#1003=AXIS2_PLACEMENT_3D('',#1401,#1136,#1137);
#1004=AXIS2_PLACEMENT_3D('',#1403,#1138,#1139);
#1005=AXIS2_PLACEMENT_3D('',#1406,#1141,#1142);
#1006=AXIS2_PLACEMENT_3D('',#1407,#1143,#1144);
#1007=AXIS2_PLACEMENT_3D('',#1409,#1145,#1146);
#1008=AXIS2_PLACEMENT_3D('',#1412,#1148,#1149);
#1009=AXIS2_PLACEMENT_3D('',#1413,#1150,#1151);
#1010=AXIS2_PLACEMENT_3D('',#1415,#1152,#1153);
#1011=AXIS2_PLACEMENT_3D('',#1418,#1154,#1155);
#1012=AXIS2_PLACEMENT_3D('',#1424,#1158,#1159);
#1013=AXIS2_PLACEMENT_3D('',#1433,#1164,#1165);
#1014=AXIS2_PLACEMENT_3D('',#1442,#1170,#1171);
#1015=AXIS2_PLACEMENT_3D('',#1451,#1176,#1177);
#1016=AXIS2_PLACEMENT_3D('',#1460,#1182,#1183);
#1017=AXIS2_PLACEMENT_3D('',#1469,#1188,#1189);
#1018=AXIS2_PLACEMENT_3D('',#1473,#1192,#1193);
#1019=AXIS2_PLACEMENT_3D('',#1479,#1197,#1198);
#1020=AXIS2_PLACEMENT_3D('',#1481,#1199,#1200);
#1021=AXIS2_PLACEMENT_3D('',#1483,#1202,#1203);
#1022=AXIS2_PLACEMENT_3D('',#1485,#1205,#1206);
#1023=AXIS2_PLACEMENT_3D('',#1489,#1209,#1210);
#1024=AXIS2_PLACEMENT_3D('',#1491,#1212,#1213);
#1025=AXIS2_PLACEMENT_3D('',#1496,#1216,#1217);
#1026=AXIS2_PLACEMENT_3D('',#1497,#1218,#1219);
#1027=AXIS2_PLACEMENT_3D('',#1501,#1222,#1223);
#1028=AXIS2_PLACEMENT_3D('',#1505,#1226,#1227);
#1029=AXIS2_PLACEMENT_3D('',#1509,#1230,#1231);
#1030=AXIS2_PLACEMENT_3D('',#1511,#1232,#1233);
#1031=AXIS2_PLACEMENT_3D('',#1513,#1235,#1236);
#1032=AXIS2_PLACEMENT_3D('',#1515,#1238,#1239);
#1033=AXIS2_PLACEMENT_3D('',#1519,#1242,#1243);
#1034=AXIS2_PLACEMENT_3D('',#1523,#1246,#1247);
#1035=AXIS2_PLACEMENT_3D('',#1527,#1250,#1251);
#1036=AXIS2_PLACEMENT_3D('',#1529,#1252,#1253);
#1037=AXIS2_PLACEMENT_3D('',#1531,#1255,#1256);
#1038=AXIS2_PLACEMENT_3D('',#1533,#1258,#1259);
#1039=AXIS2_PLACEMENT_3D('',#1537,#1262,#1263);
#1040=AXIS2_PLACEMENT_3D('',#1541,#1266,#1267);
#1041=AXIS2_PLACEMENT_3D('',#1545,#1270,#1271);
#1042=AXIS2_PLACEMENT_3D('',#1547,#1272,#1273);
#1043=AXIS2_PLACEMENT_3D('',#1549,#1275,#1276);
#1044=AXIS2_PLACEMENT_3D('',#1551,#1278,#1279);
#1045=AXIS2_PLACEMENT_3D('',#1555,#1282,#1283);
#1046=AXIS2_PLACEMENT_3D('',#1559,#1286,#1287);
#1047=AXIS2_PLACEMENT_3D('',#1563,#1290,#1291);
#1048=AXIS2_PLACEMENT_3D('',#1565,#1292,#1293);
#1049=AXIS2_PLACEMENT_3D('',#1567,#1295,#1296);
#1050=AXIS2_PLACEMENT_3D('',#1569,#1298,#1299);
#1051=AXIS2_PLACEMENT_3D('',#1573,#1302,#1303);
#1052=AXIS2_PLACEMENT_3D('',#1577,#1306,#1307);
#1053=AXIS2_PLACEMENT_3D('',#1581,#1310,#1311);
#1054=AXIS2_PLACEMENT_3D('',#1583,#1312,#1313);
#1055=AXIS2_PLACEMENT_3D('',#1585,#1315,#1316);
#1056=AXIS2_PLACEMENT_3D('',#1587,#1318,#1319);
#1057=AXIS2_PLACEMENT_3D('',#1589,#1320,#1321);
#1058=AXIS2_PLACEMENT_3D('',#1590,#1322,#1323);
#1059=DIRECTION('axis',(0.,0.,1.));
#1060=DIRECTION('refdir',(1.,0.,0.));
#1061=DIRECTION('center_axis',(0.,0.,-1.));
#1062=DIRECTION('ref_axis',(1.,0.,0.));
#1063=DIRECTION('',(0.,0.,-1.));
#1064=DIRECTION('center_axis',(0.,0.,-1.));
#1065=DIRECTION('ref_axis',(1.,0.,0.));
#1066=DIRECTION('',(0.,0.,1.));
#1067=DIRECTION('center_axis',(0.,0.,1.));
#1068=DIRECTION('ref_axis',(1.,0.,0.));
#1069=DIRECTION('center_axis',(0.,0.,-1.));
#1070=DIRECTION('ref_axis',(1.,0.,0.));
#1071=DIRECTION('',(0.,0.,-1.));
#1072=DIRECTION('center_axis',(0.,0.,-1.));
#1073=DIRECTION('ref_axis',(1.,0.,0.));
#1074=DIRECTION('',(0.,0.,1.));
#1075=DIRECTION('center_axis',(0.,0.,1.));
#1076=DIRECTION('ref_axis',(1.,0.,0.));
#1077=DIRECTION('center_axis',(0.,0.,-1.));
#1078=DIRECTION('ref_axis',(1.,0.,0.));
#1079=DIRECTION('',(0.,0.,-1.));
#1080=DIRECTION('center_axis',(0.,0.,-1.));
#1081=DIRECTION('ref_axis',(1.,0.,0.));
#1082=DIRECTION('',(0.,0.,1.));
#1083=DIRECTION('center_axis',(0.,0.,1.));
#1084=DIRECTION('ref_axis',(1.,0.,0.));
#1085=DIRECTION('center_axis',(0.,0.,-1.));
#1086=DIRECTION('ref_axis',(1.,0.,0.));
#1087=DIRECTION('',(0.,0.,-1.));
#1088=DIRECTION('center_axis',(0.,0.,-1.));
#1089=DIRECTION('ref_axis',(1.,0.,0.));
#1090=DIRECTION('',(0.,0.,1.));
#1091=DIRECTION('center_axis',(0.,0.,1.));
#1092=DIRECTION('ref_axis',(1.,0.,0.));
#1093=DIRECTION('center_axis',(0.,0.,-1.));
#1094=DIRECTION('ref_axis',(1.,0.,0.));
#1095=DIRECTION('center_axis',(0.,0.,-1.));
#1096=DIRECTION('ref_axis',(1.,0.,0.));
#1097=DIRECTION('',(0.,0.,1.));
#1098=DIRECTION('center_axis',(0.,0.,1.));
#1099=DIRECTION('ref_axis',(1.,0.,0.));
#1100=DIRECTION('',(0.,0.,-1.));
#1101=DIRECTION('center_axis',(0.,0.,-1.));
#1102=DIRECTION('ref_axis',(0.,1.,0.));
#1103=DIRECTION('center_axis',(0.,0.,-1.));
#1104=DIRECTION('ref_axis',(0.,1.,0.));
#1105=DIRECTION('',(0.,0.,-1.));
#1106=DIRECTION('center_axis',(0.,0.,1.));
#1107=DIRECTION('ref_axis',(0.,1.,0.));
#1108=DIRECTION('center_axis',(0.,0.,1.));
#1109=DIRECTION('ref_axis',(0.499999999999999,-0.866025403784439,0.));
#1110=DIRECTION('center_axis',(0.,0.,1.));
#1111=DIRECTION('ref_axis',(0.499999999999999,-0.866025403784439,0.));
#1112=DIRECTION('',(0.,0.,1.));
#1113=DIRECTION('center_axis',(0.,0.,-1.));
#1114=DIRECTION('ref_axis',(0.499999999999999,-0.866025403784439,0.));
#1115=DIRECTION('center_axis',(0.,0.,1.));
#1116=DIRECTION('ref_axis',(-0.5,-0.866025403784438,0.));
#1117=DIRECTION('center_axis',(0.,0.,1.));
#1118=DIRECTION('ref_axis',(-0.5,-0.866025403784438,0.));
#1119=DIRECTION('',(0.,0.,1.));
#1120=DIRECTION('center_axis',(0.,0.,-1.));
#1121=DIRECTION('ref_axis',(-0.5,-0.866025403784438,0.));
#1122=DIRECTION('center_axis',(0.,0.,1.));
#1123=DIRECTION('ref_axis',(-1.,1.6821560979169E-16,0.));
#1124=DIRECTION('center_axis',(0.,0.,1.));
#1125=DIRECTION('ref_axis',(-1.,1.6821560979169E-16,0.));
#1126=DIRECTION('',(0.,0.,1.));
#1127=DIRECTION('center_axis',(0.,0.,-1.));
#1128=DIRECTION('ref_axis',(-1.,1.6821560979169E-16,0.));
#1129=DIRECTION('center_axis',(0.,0.,1.));
#1130=DIRECTION('ref_axis',(-0.5,0.866025403784439,0.));
#1131=DIRECTION('center_axis',(0.,0.,1.));
#1132=DIRECTION('ref_axis',(-0.5,0.866025403784439,0.));
#1133=DIRECTION('',(0.,0.,1.));
#1134=DIRECTION('center_axis',(0.,0.,-1.));
#1135=DIRECTION('ref_axis',(-0.5,0.866025403784439,0.));
#1136=DIRECTION('center_axis',(0.,0.,1.));
#1137=DIRECTION('ref_axis',(0.5,0.866025403784439,0.));
#1138=DIRECTION('center_axis',(0.,0.,1.));
#1139=DIRECTION('ref_axis',(0.5,0.866025403784439,0.));
#1140=DIRECTION('',(0.,0.,1.));
#1141=DIRECTION('center_axis',(0.,0.,-1.));
#1142=DIRECTION('ref_axis',(0.5,0.866025403784439,0.));
#1143=DIRECTION('center_axis',(0.,0.,1.));
#1144=DIRECTION('ref_axis',(1.,0.,0.));
#1145=DIRECTION('center_axis',(0.,0.,1.));
#1146=DIRECTION('ref_axis',(1.,0.,0.));
#1147=DIRECTION('',(0.,0.,1.));
#1148=DIRECTION('center_axis',(0.,0.,-1.));
#1149=DIRECTION('ref_axis',(1.,0.,0.));
#1150=DIRECTION('center_axis',(0.,0.,1.));
#1151=DIRECTION('ref_axis',(1.,0.,0.));
#1152=DIRECTION('center_axis',(0.,0.,1.));
#1153=DIRECTION('ref_axis',(1.,0.,0.));
#1154=DIRECTION('center_axis',(0.,0.,-1.));
#1155=DIRECTION('ref_axis',(1.,0.,0.));
#1156=DIRECTION('',(-0.5,-0.866025403784439,0.));
#1157=DIRECTION('',(-0.453990499739547,-0.891006524188368,0.));
#1158=DIRECTION('center_axis',(0.,0.,1.));
#1159=DIRECTION('ref_axis',(-0.994521895368273,-0.104528463267653,0.));
#1160=DIRECTION('',(0.998629534754574,-0.0523359562429439,0.));
#1161=DIRECTION('',(1.,0.,0.));
#1162=DIRECTION('',(-1.,0.,0.));
#1163=DIRECTION('',(-0.998629534754574,-0.0523359562429437,0.));
#1164=DIRECTION('center_axis',(0.,0.,1.));
#1165=DIRECTION('ref_axis',(-0.587785252292473,0.809016994374948,0.));
#1166=DIRECTION('',(0.453990499739547,-0.891006524188368,0.));
#1167=DIRECTION('',(0.5,-0.866025403784439,0.));
#1168=DIRECTION('',(0.500000000000001,-0.866025403784438,0.));
#1169=DIRECTION('',(0.544639035015027,-0.838670567945424,0.));
#1170=DIRECTION('center_axis',(0.,0.,1.));
#1171=DIRECTION('ref_axis',(-0.406736643075801,-0.913545457642601,0.));
#1172=DIRECTION('',(0.544639035015027,0.838670567945424,0.));
#1173=DIRECTION('',(0.5,0.866025403784439,0.));
#1174=DIRECTION('',(1.,-1.2490009027033E-16,0.));
#1175=DIRECTION('',(0.998629534754574,0.0523359562429438,0.));
#1176=DIRECTION('center_axis',(0.,0.,1.));
#1177=DIRECTION('ref_axis',(0.587785252292473,-0.809016994374948,0.));
#1178=DIRECTION('',(-0.453990499739546,0.891006524188368,0.));
#1179=DIRECTION('',(-0.5,0.866025403784438,0.));
#1180=DIRECTION('',(0.5,0.866025403784439,0.));
#1181=DIRECTION('',(0.453990499739547,0.891006524188368,0.));
#1182=DIRECTION('center_axis',(0.,0.,1.));
#1183=DIRECTION('ref_axis',(0.994521895368273,0.104528463267653,0.));
#1184=DIRECTION('',(-0.998629534754574,0.0523359562429438,0.));
#1185=DIRECTION('',(-1.,1.2490009027033E-16,0.));
#1186=DIRECTION('',(-0.5,0.866025403784439,0.));
#1187=DIRECTION('',(-0.544639035015027,0.838670567945424,0.));
#1188=DIRECTION('center_axis',(0.,0.,1.));
#1189=DIRECTION('ref_axis',(0.4067366430758,0.913545457642601,0.));
#1190=DIRECTION('',(-0.544639035015027,-0.838670567945424,0.));
#1191=DIRECTION('',(-0.5,-0.866025403784439,0.));
#1192=DIRECTION('center_axis',(-0.891006524188368,-0.453990499739547,0.));
#1193=DIRECTION('ref_axis',(0.453990499739547,-0.891006524188368,0.));
#1194=DIRECTION('',(-0.453990499739547,0.891006524188368,0.));
#1195=DIRECTION('',(0.,0.,1.));
#1196=DIRECTION('',(0.,0.,1.));
#1197=DIRECTION('center_axis',(0.,0.,1.));
#1198=DIRECTION('ref_axis',(-0.587785252292473,0.809016994374948,0.));
#1199=DIRECTION('center_axis',(0.,0.,-1.));
#1200=DIRECTION('ref_axis',(-0.587785252292473,0.809016994374948,0.));
#1201=DIRECTION('',(0.,0.,1.));
#1202=DIRECTION('center_axis',(-0.866025403784439,-0.5,0.));
#1203=DIRECTION('ref_axis',(0.5,-0.866025403784439,0.));
#1204=DIRECTION('',(-0.5,0.866025403784439,0.));
#1205=DIRECTION('center_axis',(-0.0523359562429437,0.998629534754574,0.));
#1206=DIRECTION('ref_axis',(-0.998629534754574,-0.0523359562429437,0.));
#1207=DIRECTION('',(0.998629534754574,0.0523359562429437,0.));
#1208=DIRECTION('',(0.,0.,1.));
#1209=DIRECTION('center_axis',(0.,1.,0.));
#1210=DIRECTION('ref_axis',(-1.,0.,0.));
#1211=DIRECTION('',(1.,0.,0.));
#1212=DIRECTION('center_axis',(0.,0.,-1.));
#1213=DIRECTION('ref_axis',(1.,0.,0.));
#1214=DIRECTION('',(0.,0.,-1.));
#1215=DIRECTION('',(0.,0.,1.));
#1216=DIRECTION('center_axis',(0.,0.,1.));
#1217=DIRECTION('ref_axis',(1.,0.,0.));
#1218=DIRECTION('center_axis',(-0.866025403784439,0.5,0.));
#1219=DIRECTION('ref_axis',(-0.5,-0.866025403784439,0.));
#1220=DIRECTION('',(0.5,0.866025403784439,0.));
#1221=DIRECTION('',(0.,0.,1.));
#1222=DIRECTION('center_axis',(-0.891006524188368,0.453990499739547,0.));
#1223=DIRECTION('ref_axis',(-0.453990499739547,-0.891006524188368,0.));
#1224=DIRECTION('',(0.453990499739547,0.891006524188368,0.));
#1225=DIRECTION('',(0.,0.,1.));
#1226=DIRECTION('center_axis',(0.,-1.,0.));
#1227=DIRECTION('ref_axis',(1.,0.,0.));
#1228=DIRECTION('',(-1.,0.,0.));
#1229=DIRECTION('',(0.,0.,1.));
#1230=DIRECTION('center_axis',(0.,0.,1.));
#1231=DIRECTION('ref_axis',(-0.994521895368273,-0.104528463267653,0.));
#1232=DIRECTION('center_axis',(0.,0.,-1.));
#1233=DIRECTION('ref_axis',(-0.994521895368273,-0.104528463267653,0.));
#1234=DIRECTION('',(0.,0.,1.));
#1235=DIRECTION('center_axis',(-0.0523359562429439,-0.998629534754574,0.));
#1236=DIRECTION('ref_axis',(0.998629534754574,-0.0523359562429439,0.));
#1237=DIRECTION('',(-0.998629534754574,0.0523359562429439,0.));
#1238=DIRECTION('center_axis',(-0.866025403784438,-0.500000000000001,0.));
#1239=DIRECTION('ref_axis',(0.500000000000001,-0.866025403784438,0.));
#1240=DIRECTION('',(-0.500000000000001,0.866025403784438,0.));
#1241=DIRECTION('',(0.,0.,1.));
#1242=DIRECTION('center_axis',(-0.838670567945424,-0.544639035015027,0.));
#1243=DIRECTION('ref_axis',(0.544639035015027,-0.838670567945424,0.));
#1244=DIRECTION('',(-0.544639035015027,0.838670567945424,0.));
#1245=DIRECTION('',(0.,0.,1.));
#1246=DIRECTION('center_axis',(0.866025403784439,-0.5,0.));
#1247=DIRECTION('ref_axis',(0.5,0.866025403784439,0.));
#1248=DIRECTION('',(-0.5,-0.866025403784439,0.));
#1249=DIRECTION('',(0.,0.,1.));
#1250=DIRECTION('center_axis',(0.,0.,1.));
#1251=DIRECTION('ref_axis',(-0.406736643075801,-0.913545457642601,0.));
#1252=DIRECTION('center_axis',(0.,0.,-1.));
#1253=DIRECTION('ref_axis',(-0.406736643075801,-0.913545457642601,0.));
#1254=DIRECTION('',(0.,0.,1.));
#1255=DIRECTION('center_axis',(0.838670567945424,-0.544639035015027,0.));
#1256=DIRECTION('ref_axis',(0.544639035015027,0.838670567945424,0.));
#1257=DIRECTION('',(-0.544639035015027,-0.838670567945424,0.));
#1258=DIRECTION('center_axis',(-1.2490009027033E-16,-1.,0.));
#1259=DIRECTION('ref_axis',(1.,-1.2490009027033E-16,0.));
#1260=DIRECTION('',(-1.,1.2490009027033E-16,0.));
#1261=DIRECTION('',(0.,0.,1.));
#1262=DIRECTION('center_axis',(0.0523359562429438,-0.998629534754574,0.));
#1263=DIRECTION('ref_axis',(0.998629534754574,0.0523359562429438,0.));
#1264=DIRECTION('',(-0.998629534754574,-0.0523359562429438,0.));
#1265=DIRECTION('',(0.,0.,1.));
#1266=DIRECTION('center_axis',(0.866025403784438,0.5,0.));
#1267=DIRECTION('ref_axis',(-0.5,0.866025403784438,0.));
#1268=DIRECTION('',(0.5,-0.866025403784438,0.));
#1269=DIRECTION('',(0.,0.,1.));
#1270=DIRECTION('center_axis',(0.,0.,1.));
#1271=DIRECTION('ref_axis',(0.587785252292473,-0.809016994374948,0.));
#1272=DIRECTION('center_axis',(0.,0.,-1.));
#1273=DIRECTION('ref_axis',(0.587785252292473,-0.809016994374948,0.));
#1274=DIRECTION('',(0.,0.,1.));
#1275=DIRECTION('center_axis',(0.891006524188368,0.453990499739546,0.));
#1276=DIRECTION('ref_axis',(-0.453990499739546,0.891006524188368,0.));
#1277=DIRECTION('',(0.453990499739546,-0.891006524188368,0.));
#1278=DIRECTION('center_axis',(0.866025403784439,-0.5,0.));
#1279=DIRECTION('ref_axis',(0.5,0.866025403784439,0.));
#1280=DIRECTION('',(-0.5,-0.866025403784439,0.));
#1281=DIRECTION('',(0.,0.,1.));
#1282=DIRECTION('center_axis',(0.891006524188368,-0.453990499739547,0.));
#1283=DIRECTION('ref_axis',(0.453990499739547,0.891006524188368,0.));
#1284=DIRECTION('',(-0.453990499739547,-0.891006524188368,0.));
#1285=DIRECTION('',(0.,0.,1.));
#1286=DIRECTION('center_axis',(1.2490009027033E-16,1.,0.));
#1287=DIRECTION('ref_axis',(-1.,1.2490009027033E-16,0.));
#1288=DIRECTION('',(1.,-1.2490009027033E-16,0.));
#1289=DIRECTION('',(0.,0.,1.));
#1290=DIRECTION('center_axis',(0.,0.,1.));
#1291=DIRECTION('ref_axis',(0.994521895368273,0.104528463267653,0.));
#1292=DIRECTION('center_axis',(0.,0.,-1.));
#1293=DIRECTION('ref_axis',(0.994521895368273,0.104528463267653,0.));
#1294=DIRECTION('',(0.,0.,1.));
#1295=DIRECTION('center_axis',(0.0523359562429438,0.998629534754574,0.));
#1296=DIRECTION('ref_axis',(-0.998629534754574,0.0523359562429438,0.));
#1297=DIRECTION('',(0.998629534754574,-0.0523359562429438,0.));
#1298=DIRECTION('center_axis',(0.866025403784439,0.5,0.));
#1299=DIRECTION('ref_axis',(-0.5,0.866025403784439,0.));
#1300=DIRECTION('',(0.5,-0.866025403784439,0.));
#1301=DIRECTION('',(0.,0.,1.));
#1302=DIRECTION('center_axis',(0.838670567945424,0.544639035015027,0.));
#1303=DIRECTION('ref_axis',(-0.544639035015027,0.838670567945424,0.));
#1304=DIRECTION('',(0.544639035015027,-0.838670567945424,0.));
#1305=DIRECTION('',(0.,0.,1.));
#1306=DIRECTION('center_axis',(-0.866025403784439,0.5,0.));
#1307=DIRECTION('ref_axis',(-0.5,-0.866025403784439,0.));
#1308=DIRECTION('',(0.5,0.866025403784439,0.));
#1309=DIRECTION('',(0.,0.,1.));
#1310=DIRECTION('center_axis',(0.,0.,1.));
#1311=DIRECTION('ref_axis',(0.4067366430758,0.913545457642601,0.));
#1312=DIRECTION('center_axis',(0.,0.,-1.));
#1313=DIRECTION('ref_axis',(0.4067366430758,0.913545457642601,0.));
#1314=DIRECTION('',(0.,0.,1.));
#1315=DIRECTION('center_axis',(-0.838670567945424,0.544639035015027,0.));
#1316=DIRECTION('ref_axis',(-0.544639035015027,-0.838670567945424,0.));
#1317=DIRECTION('',(0.544639035015027,0.838670567945424,0.));
#1318=DIRECTION('center_axis',(0.,0.,1.));
#1319=DIRECTION('ref_axis',(1.,0.,0.));
#1320=DIRECTION('center_axis',(0.,0.,1.));
#1321=DIRECTION('ref_axis',(1.,0.,0.));
#1322=DIRECTION('center_axis',(0.,0.,-1.));
#1323=DIRECTION('ref_axis',(1.,0.,0.));
#1324=DIRECTION('',(0.,0.,-1.));
#1325=CARTESIAN_POINT('',(0.,0.,0.));
#1326=CARTESIAN_POINT('Origin',(0.,0.,100.));
#1327=CARTESIAN_POINT('',(-44.0406029552672,0.834793241995609,73.5));
#1328=CARTESIAN_POINT('',(-44.0406029552672,0.834793241995609,68.5));
#1329=CARTESIAN_POINT('',(-44.0406029552672,0.834793241995609,100.));
#1330=CARTESIAN_POINT('',(-22.7432536321093,37.7228843362476,68.5));
#1331=CARTESIAN_POINT('Origin',(0.,0.,68.5));
#1332=CARTESIAN_POINT('',(-22.7432536321093,37.7228843362476,73.5));
#1333=CARTESIAN_POINT('',(-22.7432536321093,37.7228843362476,100.));
#1334=CARTESIAN_POINT('Origin',(0.,0.,73.5));
#1335=CARTESIAN_POINT('Origin',(0.,0.,100.));
#1336=CARTESIAN_POINT('',(21.2973493231578,-38.5576775782432,73.5));
#1337=CARTESIAN_POINT('',(21.2973493231578,-38.5576775782432,68.5));
#1338=CARTESIAN_POINT('',(21.2973493231578,-38.5576775782432,100.));
#1339=CARTESIAN_POINT('',(-21.2973493231578,-38.5576775782432,68.5));
#1340=CARTESIAN_POINT('Origin',(0.,0.,68.5));
#1341=CARTESIAN_POINT('',(-21.2973493231578,-38.5576775782432,73.5));
#1342=CARTESIAN_POINT('',(-21.2973493231578,-38.5576775782432,100.));
#1343=CARTESIAN_POINT('Origin',(0.,0.,73.5));
#1344=CARTESIAN_POINT('Origin',(0.,0.,100.));
#1345=CARTESIAN_POINT('',(44.0406029552672,-0.834793241995615,73.5));
#1346=CARTESIAN_POINT('',(44.0406029552672,-0.834793241995615,68.5));
#1347=CARTESIAN_POINT('',(44.0406029552672,-0.834793241995615,100.));
#1348=CARTESIAN_POINT('',(22.7432536321094,-37.7228843362476,68.5));
#1349=CARTESIAN_POINT('Origin',(0.,0.,68.5));
#1350=CARTESIAN_POINT('',(22.7432536321094,-37.7228843362476,73.5));
#1351=CARTESIAN_POINT('',(22.7432536321094,-37.7228843362476,100.));
#1352=CARTESIAN_POINT('Origin',(0.,0.,73.5));
#1353=CARTESIAN_POINT('Origin',(0.,0.,100.));
#1354=CARTESIAN_POINT('',(22.7432536321094,37.7228843362476,73.5));
#1355=CARTESIAN_POINT('',(22.7432536321094,37.7228843362476,68.5));
#1356=CARTESIAN_POINT('',(22.7432536321094,37.7228843362476,100.));
#1357=CARTESIAN_POINT('',(44.0406029552672,0.834793241995595,68.5));
#1358=CARTESIAN_POINT('Origin',(0.,0.,68.5));
#1359=CARTESIAN_POINT('',(44.0406029552672,0.834793241995595,73.5));
#1360=CARTESIAN_POINT('',(44.0406029552672,0.834793241995595,100.));
#1361=CARTESIAN_POINT('Origin',(0.,0.,73.5));
#1362=CARTESIAN_POINT('Origin',(0.,0.,100.));
#1363=CARTESIAN_POINT('',(-21.2973493231578,38.5576775782432,68.5));
#1364=CARTESIAN_POINT('',(21.2973493231579,38.5576775782432,68.5));
#1365=CARTESIAN_POINT('Origin',(0.,0.,68.5));
#1366=CARTESIAN_POINT('',(21.2973493231579,38.5576775782432,73.5));
#1367=CARTESIAN_POINT('',(21.2973493231579,38.5576775782432,100.));
#1368=CARTESIAN_POINT('',(-21.2973493231578,38.5576775782432,73.5));
#1369=CARTESIAN_POINT('Origin',(0.,0.,73.5));
#1370=CARTESIAN_POINT('',(-21.2973493231578,38.5576775782432,100.));
#1371=CARTESIAN_POINT('Origin',(2.32258656751583E-12,-4.04565270173407E-12,
71.));
#1372=CARTESIAN_POINT('',(2.32209670879617E-12,-4.00000000000405,73.5));
#1373=CARTESIAN_POINT('Origin',(2.32258656751583E-12,-4.04565270173407E-12,
73.5));
#1374=CARTESIAN_POINT('',(2.32307642623549E-12,-4.00000000000405,68.5));
#1375=CARTESIAN_POINT('',(2.32209670879617E-12,-4.00000000000405,71.));
#1376=CARTESIAN_POINT('Origin',(2.32258656751583E-12,-4.04565270173407E-12,
68.5));
#1377=CARTESIAN_POINT('Origin',(-6.25000009313225,10.8253177086153,75.));
#1378=CARTESIAN_POINT('',(-7.07500009313225,12.2542596248596,68.5));
#1379=CARTESIAN_POINT('Origin',(-6.25000009313225,10.8253177086153,68.5));
#1380=CARTESIAN_POINT('',(-7.07500009313225,12.2542596248596,73.5));
#1381=CARTESIAN_POINT('',(-7.07500009313225,12.2542596248596,75.));
#1382=CARTESIAN_POINT('Origin',(-6.25000009313225,10.8253177086153,73.5));
#1383=CARTESIAN_POINT('Origin',(6.25000009313226,10.8253177086153,75.));
#1384=CARTESIAN_POINT('',(7.07500009313226,12.2542596248596,68.5));
#1385=CARTESIAN_POINT('Origin',(6.25000009313226,10.8253177086153,68.5));
#1386=CARTESIAN_POINT('',(7.07500009313226,12.2542596248596,73.5));
#1387=CARTESIAN_POINT('',(7.07500009313226,12.2542596248596,75.));
#1388=CARTESIAN_POINT('Origin',(6.25000009313226,10.8253177086153,73.5));
#1389=CARTESIAN_POINT('Origin',(12.5000001862645,-1.11022302462516E-15,
75.));
#1390=CARTESIAN_POINT('',(14.1500001862645,-1.18571205892213E-15,68.5));
#1391=CARTESIAN_POINT('Origin',(12.5000001862645,-1.11022302462516E-15,
68.5));
#1392=CARTESIAN_POINT('',(14.1500001862645,-1.58984550264076E-15,73.5));
#1393=CARTESIAN_POINT('',(14.1500001862645,-1.18571205892213E-15,75.));
#1394=CARTESIAN_POINT('Origin',(12.5000001862645,-1.11022302462516E-15,
73.5));
#1395=CARTESIAN_POINT('Origin',(6.25000009313226,-10.8253177086153,75.));
#1396=CARTESIAN_POINT('',(7.07500009313225,-12.2542596248596,68.5));
#1397=CARTESIAN_POINT('Origin',(6.25000009313226,-10.8253177086153,68.5));
#1398=CARTESIAN_POINT('',(7.07500009313225,-12.2542596248596,73.5));
#1399=CARTESIAN_POINT('',(7.07500009313226,-12.2542596248596,75.));
#1400=CARTESIAN_POINT('Origin',(6.25000009313226,-10.8253177086153,73.5));
#1401=CARTESIAN_POINT('Origin',(-6.25000009313226,-10.8253177086153,75.));
#1402=CARTESIAN_POINT('',(-7.07500009313226,-12.2542596248596,68.5));
#1403=CARTESIAN_POINT('Origin',(-6.25000009313226,-10.8253177086153,68.5));
#1404=CARTESIAN_POINT('',(-7.07500009313226,-12.2542596248596,73.5));
#1405=CARTESIAN_POINT('',(-7.07500009313226,-12.2542596248596,75.));
#1406=CARTESIAN_POINT('Origin',(-6.25000009313226,-10.8253177086153,73.5));
#1407=CARTESIAN_POINT('Origin',(-12.5000001862645,0.,75.));
#1408=CARTESIAN_POINT('',(-14.1500001862645,-2.02066721859313E-16,68.5));
#1409=CARTESIAN_POINT('Origin',(-12.5000001862645,0.,68.5));
#1410=CARTESIAN_POINT('',(-14.1500001862645,2.02066721859313E-16,73.5));
#1411=CARTESIAN_POINT('',(-14.1500001862645,-2.02066721859313E-16,75.));
#1412=CARTESIAN_POINT('Origin',(-12.5000001862645,0.,73.5));
#1413=CARTESIAN_POINT('Origin',(0.,0.,68.5));
#1414=CARTESIAN_POINT('',(-45.5000006780028,-5.57214301915186E-15,68.5));
#1415=CARTESIAN_POINT('Origin',(0.,0.,68.5));
#1416=CARTESIAN_POINT('',(-22.7432536321094,-37.7228843362476,68.5));
#1417=CARTESIAN_POINT('',(-44.0406029552672,-0.834793241995596,68.5));
#1418=CARTESIAN_POINT('Origin',(0.,0.,68.5));
#1419=CARTESIAN_POINT('',(-19.6599446937118,-32.3824365995117,68.5));
#1420=CARTESIAN_POINT('',(-10.1914484240938,-15.9825199892569,68.5));
#1421=CARTESIAN_POINT('',(-10.5801346989208,-14.5623061157443,68.5));
#1422=CARTESIAN_POINT('',(-6.54452452878214,-6.64197519970674,68.5));
#1423=CARTESIAN_POINT('',(-17.9013943833805,-1.88151236685448,68.5));
#1424=CARTESIAN_POINT('Origin',(0.,0.,68.5));
#1425=CARTESIAN_POINT('',(-37.873985078472,-0.8347932419956,68.5));
#1426=CARTESIAN_POINT('',(-19.0106768661891,-1.8233773353329,68.5));
#1427=CARTESIAN_POINT('',(-23.936992539236,-0.8347932419956,68.5));
#1428=CARTESIAN_POINT('',(-37.873985078472,0.834793241995609,68.5));
#1429=CARTESIAN_POINT('',(-18.936992539236,0.834793241995609,68.5));
#1430=CARTESIAN_POINT('',(-17.9013943833805,1.88151236685448,68.5));
#1431=CARTESIAN_POINT('',(-9.02438151864333,2.34673689776234,68.5));
#1432=CARTESIAN_POINT('',(-10.5801346989208,14.5623061157443,68.5));
#1433=CARTESIAN_POINT('Origin',(0.,0.,68.5));
#1434=CARTESIAN_POINT('',(-19.6599446937117,32.3824365995117,68.5));
#1435=CARTESIAN_POINT('',(-11.0844295261776,15.5520404415904,68.5));
#1436=CARTESIAN_POINT('',(-12.6914484240937,20.3126470081791,68.5));
#1437=CARTESIAN_POINT('',(18.2140403847602,-33.2172298415073,68.5));
#1438=CARTESIAN_POINT('',(8.7455441151422,-16.8173132312526,68.5));
#1439=CARTESIAN_POINT('',(7.32125968445966,-16.4438184825988,68.5));
#1440=CARTESIAN_POINT('',(2.47985698986118,-8.98871209746909,68.5));
#1441=CARTESIAN_POINT('',(-7.32125968445968,-16.4438184825988,68.5));
#1442=CARTESIAN_POINT('Origin',(0.,0.,68.5));
#1443=CARTESIAN_POINT('',(-18.2140403847602,-33.2172298415073,68.5));
#1444=CARTESIAN_POINT('',(-7.92624734001147,-17.3754177769233,68.5));
#1445=CARTESIAN_POINT('',(-11.2455441151422,-21.1474402501747,68.5));
#1446=CARTESIAN_POINT('',(37.873985078472,-0.834793241995614,68.5));
#1447=CARTESIAN_POINT('',(18.936992539236,-0.834793241995612,68.5));
#1448=CARTESIAN_POINT('',(17.9013943833805,-1.88151236685448,68.5));
#1449=CARTESIAN_POINT('',(9.02438151864333,-2.34673689776234,68.5));
#1450=CARTESIAN_POINT('',(10.5801346989208,-14.5623061157443,68.5));
#1451=CARTESIAN_POINT('Origin',(0.,0.,68.5));
#1452=CARTESIAN_POINT('',(19.6599446937117,-32.3824365995117,68.5));
#1453=CARTESIAN_POINT('',(11.0844295261776,-15.5520404415904,68.5));
#1454=CARTESIAN_POINT('',(12.6914484240937,-20.3126470081791,68.5));
#1455=CARTESIAN_POINT('',(19.6599446937118,32.3824365995117,68.5));
#1456=CARTESIAN_POINT('',(10.1914484240938,15.9825199892569,68.5));
#1457=CARTESIAN_POINT('',(10.5801346989208,14.5623061157443,68.5));
#1458=CARTESIAN_POINT('',(6.54452452878214,6.64197519970674,68.5));
#1459=CARTESIAN_POINT('',(17.9013943833805,1.88151236685448,68.5));
#1460=CARTESIAN_POINT('Origin',(0.,0.,68.5));
#1461=CARTESIAN_POINT('',(37.873985078472,0.834793241995596,68.5));
#1462=CARTESIAN_POINT('',(19.0106768661891,1.82337733533291,68.5));
#1463=CARTESIAN_POINT('',(23.936992539236,0.834793241995597,68.5));
#1464=CARTESIAN_POINT('',(-18.2140403847602,33.2172298415073,68.5));
#1465=CARTESIAN_POINT('',(-8.7455441151422,16.8173132312526,68.5));
#1466=CARTESIAN_POINT('',(-7.32125968445966,16.4438184825988,68.5));
#1467=CARTESIAN_POINT('',(-2.47985698986119,8.98871209746909,68.5));
#1468=CARTESIAN_POINT('',(7.32125968445967,16.4438184825988,68.5));
#1469=CARTESIAN_POINT('Origin',(0.,0.,68.5));
#1470=CARTESIAN_POINT('',(18.2140403847602,33.2172298415073,68.5));
#1471=CARTESIAN_POINT('',(7.92624734001146,17.3754177769233,68.5));
#1472=CARTESIAN_POINT('',(11.2455441151422,21.1474402501747,68.5));
#1473=CARTESIAN_POINT('Origin',(-19.6599446937117,32.3824365995117,70.));
#1474=CARTESIAN_POINT('',(-10.5801346989208,14.5623061157443,73.5));
#1475=CARTESIAN_POINT('',(-19.6599446937117,32.3824365995117,73.5));
#1476=CARTESIAN_POINT('',(-11.0844295261776,15.5520404415904,73.5));
#1477=CARTESIAN_POINT('',(-19.6599446937117,32.3824365995117,70.));
#1478=CARTESIAN_POINT('',(-10.5801346989208,14.5623061157443,70.));
#1479=CARTESIAN_POINT('Origin',(0.,0.,70.));
#1480=CARTESIAN_POINT('',(-17.9013943833805,1.88151236685448,73.5));
#1481=CARTESIAN_POINT('Origin',(0.,0.,73.5));
#1482=CARTESIAN_POINT('',(-17.9013943833805,1.88151236685448,70.));
#1483=CARTESIAN_POINT('Origin',(-24.6599446937117,41.0426906373561,70.));
#1484=CARTESIAN_POINT('',(-12.6914484240937,20.3126470081791,73.5));
#1485=CARTESIAN_POINT('Origin',(-17.9013943833805,1.88151236685448,70.));
#1486=CARTESIAN_POINT('',(-37.873985078472,0.834793241995609,73.5));
#1487=CARTESIAN_POINT('',(-9.02438151864333,2.34673689776234,73.5));
#1488=CARTESIAN_POINT('',(-37.873985078472,0.834793241995609,70.));
#1489=CARTESIAN_POINT('Origin',(-37.873985078472,0.834793241995609,70.));
#1490=CARTESIAN_POINT('',(-18.936992539236,0.834793241995609,73.5));
#1491=CARTESIAN_POINT('Origin',(0.,0.,100.));
#1492=CARTESIAN_POINT('',(-22.7432536321094,-37.7228843362476,73.5));
#1493=CARTESIAN_POINT('',(-22.7432536321094,-37.7228843362476,100.));
#1494=CARTESIAN_POINT('',(-44.0406029552672,-0.8347932419956,73.5));
#1495=CARTESIAN_POINT('',(-44.0406029552672,-0.8347932419956,100.));
#1496=CARTESIAN_POINT('Origin',(0.,0.,73.5));
#1497=CARTESIAN_POINT('Origin',(-19.6599446937118,-32.3824365995117,70.));
#1498=CARTESIAN_POINT('',(-19.6599446937118,-32.3824365995117,73.5));
#1499=CARTESIAN_POINT('',(-10.1914484240938,-15.9825199892569,73.5));
#1500=CARTESIAN_POINT('',(-19.6599446937118,-32.3824365995117,70.));
#1501=CARTESIAN_POINT('Origin',(-10.5801346989208,-14.5623061157443,70.));
#1502=CARTESIAN_POINT('',(-10.5801346989208,-14.5623061157443,73.5));
#1503=CARTESIAN_POINT('',(-6.54452452878214,-6.64197519970674,73.5));
#1504=CARTESIAN_POINT('',(-10.5801346989208,-14.5623061157443,70.));
#1505=CARTESIAN_POINT('Origin',(-47.873985078472,-0.8347932419956,70.));
#1506=CARTESIAN_POINT('',(-37.873985078472,-0.8347932419956,73.5));
#1507=CARTESIAN_POINT('',(-23.936992539236,-0.8347932419956,73.5));
#1508=CARTESIAN_POINT('',(-37.873985078472,-0.8347932419956,70.));
#1509=CARTESIAN_POINT('Origin',(0.,0.,70.));
#1510=CARTESIAN_POINT('',(-17.9013943833805,-1.88151236685448,73.5));
#1511=CARTESIAN_POINT('Origin',(0.,0.,73.5));
#1512=CARTESIAN_POINT('',(-17.9013943833805,-1.88151236685448,70.));
#1513=CARTESIAN_POINT('Origin',(-37.873985078472,-0.8347932419956,70.));
#1514=CARTESIAN_POINT('',(-19.0106768661891,-1.8233773353329,73.5));
#1515=CARTESIAN_POINT('Origin',(18.2140403847602,-33.2172298415073,70.));
#1516=CARTESIAN_POINT('',(18.2140403847602,-33.2172298415073,73.5));
#1517=CARTESIAN_POINT('',(8.7455441151422,-16.8173132312526,73.5));
#1518=CARTESIAN_POINT('',(18.2140403847602,-33.2172298415073,70.));
#1519=CARTESIAN_POINT('Origin',(7.32125968445966,-16.4438184825988,70.));
#1520=CARTESIAN_POINT('',(7.32125968445966,-16.4438184825988,73.5));
#1521=CARTESIAN_POINT('',(2.47985698986118,-8.98871209746909,73.5));
#1522=CARTESIAN_POINT('',(7.32125968445966,-16.4438184825988,70.));
#1523=CARTESIAN_POINT('Origin',(-23.2140403847602,-41.8774838793517,70.));
#1524=CARTESIAN_POINT('',(-18.2140403847602,-33.2172298415073,73.5));
#1525=CARTESIAN_POINT('',(-11.2455441151422,-21.1474402501747,73.5));
#1526=CARTESIAN_POINT('',(-18.2140403847602,-33.2172298415073,70.));
#1527=CARTESIAN_POINT('Origin',(0.,0.,70.));
#1528=CARTESIAN_POINT('',(-7.32125968445968,-16.4438184825988,73.5));
#1529=CARTESIAN_POINT('Origin',(0.,0.,73.5));
#1530=CARTESIAN_POINT('',(-7.32125968445968,-16.4438184825988,70.));
#1531=CARTESIAN_POINT('Origin',(-18.2140403847602,-33.2172298415073,70.));
#1532=CARTESIAN_POINT('',(-7.92624734001147,-17.3754177769233,73.5));
#1533=CARTESIAN_POINT('Origin',(37.873985078472,-0.834793241995614,70.));
#1534=CARTESIAN_POINT('',(37.873985078472,-0.834793241995614,73.5));
#1535=CARTESIAN_POINT('',(18.936992539236,-0.834793241995612,73.5));
#1536=CARTESIAN_POINT('',(37.873985078472,-0.834793241995614,70.));
#1537=CARTESIAN_POINT('Origin',(17.9013943833805,-1.88151236685448,70.));
#1538=CARTESIAN_POINT('',(17.9013943833805,-1.88151236685448,73.5));
#1539=CARTESIAN_POINT('',(9.02438151864333,-2.34673689776234,73.5));
#1540=CARTESIAN_POINT('',(17.9013943833805,-1.88151236685448,70.));
#1541=CARTESIAN_POINT('Origin',(24.6599446937117,-41.0426906373561,70.));
#1542=CARTESIAN_POINT('',(19.6599446937117,-32.3824365995117,73.5));
#1543=CARTESIAN_POINT('',(12.6914484240937,-20.3126470081791,73.5));
#1544=CARTESIAN_POINT('',(19.6599446937117,-32.3824365995117,70.));
#1545=CARTESIAN_POINT('Origin',(0.,0.,70.));
#1546=CARTESIAN_POINT('',(10.5801346989208,-14.5623061157443,73.5));
#1547=CARTESIAN_POINT('Origin',(0.,0.,73.5));
#1548=CARTESIAN_POINT('',(10.5801346989208,-14.5623061157443,70.));
#1549=CARTESIAN_POINT('Origin',(19.6599446937117,-32.3824365995117,70.));
#1550=CARTESIAN_POINT('',(11.0844295261776,-15.5520404415904,73.5));
#1551=CARTESIAN_POINT('Origin',(19.6599446937118,32.3824365995117,70.));
#1552=CARTESIAN_POINT('',(19.6599446937118,32.3824365995117,73.5));
#1553=CARTESIAN_POINT('',(10.1914484240938,15.9825199892569,73.5));
#1554=CARTESIAN_POINT('',(19.6599446937118,32.3824365995117,70.));
#1555=CARTESIAN_POINT('Origin',(10.5801346989208,14.5623061157443,70.));
#1556=CARTESIAN_POINT('',(10.5801346989208,14.5623061157443,73.5));
#1557=CARTESIAN_POINT('',(6.54452452878214,6.64197519970674,73.5));
#1558=CARTESIAN_POINT('',(10.5801346989208,14.5623061157443,70.));
#1559=CARTESIAN_POINT('Origin',(47.873985078472,0.834793241995594,70.));
#1560=CARTESIAN_POINT('',(37.873985078472,0.834793241995596,73.5));
#1561=CARTESIAN_POINT('',(23.936992539236,0.834793241995597,73.5));
#1562=CARTESIAN_POINT('',(37.873985078472,0.834793241995596,70.));
#1563=CARTESIAN_POINT('Origin',(0.,0.,70.));
#1564=CARTESIAN_POINT('',(17.9013943833805,1.88151236685448,73.5));
#1565=CARTESIAN_POINT('Origin',(0.,0.,73.5));
#1566=CARTESIAN_POINT('',(17.9013943833805,1.88151236685448,70.));
#1567=CARTESIAN_POINT('Origin',(37.873985078472,0.834793241995605,70.));
#1568=CARTESIAN_POINT('',(19.0106768661891,1.82337733533291,73.5));
#1569=CARTESIAN_POINT('Origin',(-18.2140403847602,33.2172298415073,70.));
#1570=CARTESIAN_POINT('',(-18.2140403847602,33.2172298415073,73.5));
#1571=CARTESIAN_POINT('',(-8.7455441151422,16.8173132312526,73.5));
#1572=CARTESIAN_POINT('',(-18.2140403847602,33.2172298415073,70.));
#1573=CARTESIAN_POINT('Origin',(-7.32125968445967,16.4438184825988,70.));
#1574=CARTESIAN_POINT('',(-7.32125968445966,16.4438184825988,73.5));
#1575=CARTESIAN_POINT('',(-2.47985698986119,8.98871209746909,73.5));
#1576=CARTESIAN_POINT('',(-7.32125968445966,16.4438184825988,70.));
#1577=CARTESIAN_POINT('Origin',(23.2140403847602,41.8774838793517,70.));
#1578=CARTESIAN_POINT('',(18.2140403847602,33.2172298415073,73.5));
#1579=CARTESIAN_POINT('',(11.2455441151422,21.1474402501747,73.5));
#1580=CARTESIAN_POINT('',(18.2140403847602,33.2172298415073,70.));
#1581=CARTESIAN_POINT('Origin',(0.,0.,70.));
#1582=CARTESIAN_POINT('',(7.32125968445967,16.4438184825988,73.5));
#1583=CARTESIAN_POINT('Origin',(0.,0.,73.5));
#1584=CARTESIAN_POINT('',(7.32125968445967,16.4438184825988,70.));
#1585=CARTESIAN_POINT('Origin',(18.2140403847602,33.2172298415073,70.));
#1586=CARTESIAN_POINT('',(7.92624734001146,17.3754177769233,73.5));
#1587=CARTESIAN_POINT('Origin',(0.,0.,73.5));
#1588=CARTESIAN_POINT('',(-45.5000006780028,-5.57214301915186E-15,73.5));
#1589=CARTESIAN_POINT('Origin',(0.,0.,73.5));
#1590=CARTESIAN_POINT('Origin',(0.,0.,73.5));
#1591=CARTESIAN_POINT('',(-45.5000006780028,5.57214301915186E-15,73.5));
#1592=UNCERTAINTY_MEASURE_WITH_UNIT(LENGTH_MEASURE(0.01),#1596,
'DISTANCE_ACCURACY_VALUE',
'Maximum model space distance between geometric entities at asserted c
onnectivities');
#1593=UNCERTAINTY_MEASURE_WITH_UNIT(LENGTH_MEASURE(0.01),#1596,
'DISTANCE_ACCURACY_VALUE',
'Maximum model space distance between geometric entities at asserted c
onnectivities');
#1594=(
GEOMETRIC_REPRESENTATION_CONTEXT(3)
GLOBAL_UNCERTAINTY_ASSIGNED_CONTEXT((#1592))
GLOBAL_UNIT_ASSIGNED_CONTEXT((#1596,#1598,#1599))
REPRESENTATION_CONTEXT('','3D')
);
#1595=(
GEOMETRIC_REPRESENTATION_CONTEXT(3)
GLOBAL_UNCERTAINTY_ASSIGNED_CONTEXT((#1593))
GLOBAL_UNIT_ASSIGNED_CONTEXT((#1596,#1598,#1599))
REPRESENTATION_CONTEXT('','3D')
);
#1596=(
LENGTH_UNIT()
NAMED_UNIT(*)
SI_UNIT(.MILLI.,.METRE.)
);
#1597=(
LENGTH_UNIT()
NAMED_UNIT(*)
SI_UNIT($,.METRE.)
);
#1598=(
NAMED_UNIT(*)
PLANE_ANGLE_UNIT()
SI_UNIT($,.RADIAN.)
);
#1599=(
NAMED_UNIT(*)
SI_UNIT($,.STERADIAN.)
SOLID_ANGLE_UNIT()
);
#1600=SHAPE_DEFINITION_REPRESENTATION(#1601,#1602);
#1601=PRODUCT_DEFINITION_SHAPE('',$,#1604);
#1602=SHAPE_REPRESENTATION('',(#972),#1594);
#1603=PRODUCT_DEFINITION_CONTEXT('part definition',#1608,'design');
#1604=PRODUCT_DEFINITION('edf','edf v2',#1605,#1603);
#1605=PRODUCT_DEFINITION_FORMATION('',$,#1610);
#1606=PRODUCT_RELATED_PRODUCT_CATEGORY('edf v2','edf v2',(#1610));
#1607=APPLICATION_PROTOCOL_DEFINITION('international standard',
'automotive_design',2009,#1608);
#1608=APPLICATION_CONTEXT(
'Core Data for Automotive Mechanical Design Process');
#1609=PRODUCT_CONTEXT('part definition',#1608,'mechanical');
#1610=PRODUCT('edf','edf v2',$,(#1609));
#1611=PRESENTATION_STYLE_ASSIGNMENT((#1613));
#1612=PRESENTATION_STYLE_ASSIGNMENT((#1614));
#1613=SURFACE_STYLE_USAGE(.BOTH.,#1615);
#1614=SURFACE_STYLE_USAGE(.BOTH.,#1616);
#1615=SURFACE_SIDE_STYLE('',(#1617));
#1616=SURFACE_SIDE_STYLE('',(#1618));
#1617=SURFACE_STYLE_FILL_AREA(#1619);
#1618=SURFACE_STYLE_FILL_AREA(#1620);
#1619=FILL_AREA_STYLE('Stal \X2\2014\X0\ satynowa',(#1621));
#1620=FILL_AREA_STYLE('Aluminium \X2\2014\X0\ anodowane, po\X2\0142\X0\y
sk (szare)',(#1622));
#1621=FILL_AREA_STYLE_COLOUR('Stal \X2\2014\X0\ satynowa',#1623);
#1622=FILL_AREA_STYLE_COLOUR('Aluminium \X2\2014\X0\ anodowane, po\X2\0142\X0\y
sk (szare)',#1624);
#1623=COLOUR_RGB('Stal \X2\2014\X0\ satynowa',0.627450980392157,0.627450980392157,
0.627450980392157);
#1624=COLOUR_RGB('Aluminium \X2\2014\X0\ anodowane, po\X2\0142\X0\ysk 
(szare)',0.537254901960784,0.537254901960784,0.537254901960784);
ENDSEC;
END-ISO-10303-21;
